%
M48
M72
T01C0.0120
T02C0.0276
T03C0.0300
T04C0.0320
T05C0.0394
T06C0.0400
T07C0.1260
%
T01
X24362Y8151
T02
X24601Y4401
X24601Y3401
X3851Y4151
X2851Y4151
T03
X15601Y3167
X15601Y5135
T04
X14351Y5151
X14351Y4151
X14351Y3151
X10601Y3651
X10601Y4651
X10601Y5651
X10601Y6651
X12101Y7151
X13101Y7151
X14101Y7151
X15101Y7151
X16101Y7151
X17101Y7151
X18101Y7151
X19601Y6651
X19601Y5651
X19601Y4651
X19601Y3651
X22601Y3651
X22601Y4651
X22601Y5651
X22601Y6651
X22601Y7651
X22601Y8651
X22601Y9651
X22601Y10651
X19601Y10651
X18101Y10151
X17101Y10151
X16101Y10151
X15101Y10151
X14101Y10151
X13101Y10151
X12101Y10151
X10601Y9651
X10601Y8651
X10601Y7651
X7601Y7651
X7601Y6651
X7601Y5651
X7601Y4651
X7601Y3651
X14601Y1401
X15601Y1401
X26351Y4401
X27351Y4401
X26851Y3651
X19601Y7651
X19601Y8651
X19601Y9651
X10601Y10651
X7601Y10651
X7601Y9651
X7601Y8651
T05
X2851Y1401
X3851Y1401
X4851Y1401
X10351Y1401
X11351Y1401
X12351Y1401
X17851Y1401
X18851Y1401
X19851Y1401
X25351Y1401
X26351Y1401
X27351Y1401
T06
X27351Y6151
X26351Y6151
X26351Y7151
X27351Y7151
X27351Y8151
X26351Y8151
X26351Y9151
X27351Y9151
X27351Y10151
X26351Y10151
X3851Y10151
X2851Y10151
X2851Y9151
X3851Y9151
X3851Y8151
X2851Y8151
X2851Y7151
X3851Y7151
X3851Y6151
X2851Y6151
T07
X1351Y2651
X1351Y12651
X28851Y12651
X28851Y2651
M30
