G75*
G70*
%OFA0B0*%
%FSLAX24Y24*%
%IPPOS*%
%LPD*%
%AMOC8*
5,1,8,0,0,1.08239X$1,22.5*
%
%ADD10C,0.0000*%
%ADD11C,0.1300*%
%ADD12C,0.0560*%
%ADD13C,0.0634*%
%ADD14OC8,0.0780*%
%ADD15C,0.0540*%
%ADD16OC8,0.0560*%
%ADD17R,0.0690X0.0690*%
%ADD18C,0.0690*%
D10*
X000101Y000151D02*
X000101Y014147D01*
X000721Y012651D02*
X000723Y012701D01*
X000729Y012751D01*
X000739Y012800D01*
X000753Y012848D01*
X000770Y012895D01*
X000791Y012940D01*
X000816Y012984D01*
X000844Y013025D01*
X000876Y013064D01*
X000910Y013101D01*
X000947Y013135D01*
X000987Y013165D01*
X001029Y013192D01*
X001073Y013216D01*
X001119Y013237D01*
X001166Y013253D01*
X001214Y013266D01*
X001264Y013275D01*
X001313Y013280D01*
X001364Y013281D01*
X001414Y013278D01*
X001463Y013271D01*
X001512Y013260D01*
X001560Y013245D01*
X001606Y013227D01*
X001651Y013205D01*
X001694Y013179D01*
X001735Y013150D01*
X001774Y013118D01*
X001810Y013083D01*
X001842Y013045D01*
X001872Y013005D01*
X001899Y012962D01*
X001922Y012918D01*
X001941Y012872D01*
X001957Y012824D01*
X001969Y012775D01*
X001977Y012726D01*
X001981Y012676D01*
X001981Y012626D01*
X001977Y012576D01*
X001969Y012527D01*
X001957Y012478D01*
X001941Y012430D01*
X001922Y012384D01*
X001899Y012340D01*
X001872Y012297D01*
X001842Y012257D01*
X001810Y012219D01*
X001774Y012184D01*
X001735Y012152D01*
X001694Y012123D01*
X001651Y012097D01*
X001606Y012075D01*
X001560Y012057D01*
X001512Y012042D01*
X001463Y012031D01*
X001414Y012024D01*
X001364Y012021D01*
X001313Y012022D01*
X001264Y012027D01*
X001214Y012036D01*
X001166Y012049D01*
X001119Y012065D01*
X001073Y012086D01*
X001029Y012110D01*
X000987Y012137D01*
X000947Y012167D01*
X000910Y012201D01*
X000876Y012238D01*
X000844Y012277D01*
X000816Y012318D01*
X000791Y012362D01*
X000770Y012407D01*
X000753Y012454D01*
X000739Y012502D01*
X000729Y012551D01*
X000723Y012601D01*
X000721Y012651D01*
X000721Y002651D02*
X000723Y002701D01*
X000729Y002751D01*
X000739Y002800D01*
X000753Y002848D01*
X000770Y002895D01*
X000791Y002940D01*
X000816Y002984D01*
X000844Y003025D01*
X000876Y003064D01*
X000910Y003101D01*
X000947Y003135D01*
X000987Y003165D01*
X001029Y003192D01*
X001073Y003216D01*
X001119Y003237D01*
X001166Y003253D01*
X001214Y003266D01*
X001264Y003275D01*
X001313Y003280D01*
X001364Y003281D01*
X001414Y003278D01*
X001463Y003271D01*
X001512Y003260D01*
X001560Y003245D01*
X001606Y003227D01*
X001651Y003205D01*
X001694Y003179D01*
X001735Y003150D01*
X001774Y003118D01*
X001810Y003083D01*
X001842Y003045D01*
X001872Y003005D01*
X001899Y002962D01*
X001922Y002918D01*
X001941Y002872D01*
X001957Y002824D01*
X001969Y002775D01*
X001977Y002726D01*
X001981Y002676D01*
X001981Y002626D01*
X001977Y002576D01*
X001969Y002527D01*
X001957Y002478D01*
X001941Y002430D01*
X001922Y002384D01*
X001899Y002340D01*
X001872Y002297D01*
X001842Y002257D01*
X001810Y002219D01*
X001774Y002184D01*
X001735Y002152D01*
X001694Y002123D01*
X001651Y002097D01*
X001606Y002075D01*
X001560Y002057D01*
X001512Y002042D01*
X001463Y002031D01*
X001414Y002024D01*
X001364Y002021D01*
X001313Y002022D01*
X001264Y002027D01*
X001214Y002036D01*
X001166Y002049D01*
X001119Y002065D01*
X001073Y002086D01*
X001029Y002110D01*
X000987Y002137D01*
X000947Y002167D01*
X000910Y002201D01*
X000876Y002238D01*
X000844Y002277D01*
X000816Y002318D01*
X000791Y002362D01*
X000770Y002407D01*
X000753Y002454D01*
X000739Y002502D01*
X000729Y002551D01*
X000723Y002601D01*
X000721Y002651D01*
X000101Y000151D02*
X030096Y000151D01*
X030096Y014147D01*
X028221Y012651D02*
X028223Y012701D01*
X028229Y012751D01*
X028239Y012800D01*
X028253Y012848D01*
X028270Y012895D01*
X028291Y012940D01*
X028316Y012984D01*
X028344Y013025D01*
X028376Y013064D01*
X028410Y013101D01*
X028447Y013135D01*
X028487Y013165D01*
X028529Y013192D01*
X028573Y013216D01*
X028619Y013237D01*
X028666Y013253D01*
X028714Y013266D01*
X028764Y013275D01*
X028813Y013280D01*
X028864Y013281D01*
X028914Y013278D01*
X028963Y013271D01*
X029012Y013260D01*
X029060Y013245D01*
X029106Y013227D01*
X029151Y013205D01*
X029194Y013179D01*
X029235Y013150D01*
X029274Y013118D01*
X029310Y013083D01*
X029342Y013045D01*
X029372Y013005D01*
X029399Y012962D01*
X029422Y012918D01*
X029441Y012872D01*
X029457Y012824D01*
X029469Y012775D01*
X029477Y012726D01*
X029481Y012676D01*
X029481Y012626D01*
X029477Y012576D01*
X029469Y012527D01*
X029457Y012478D01*
X029441Y012430D01*
X029422Y012384D01*
X029399Y012340D01*
X029372Y012297D01*
X029342Y012257D01*
X029310Y012219D01*
X029274Y012184D01*
X029235Y012152D01*
X029194Y012123D01*
X029151Y012097D01*
X029106Y012075D01*
X029060Y012057D01*
X029012Y012042D01*
X028963Y012031D01*
X028914Y012024D01*
X028864Y012021D01*
X028813Y012022D01*
X028764Y012027D01*
X028714Y012036D01*
X028666Y012049D01*
X028619Y012065D01*
X028573Y012086D01*
X028529Y012110D01*
X028487Y012137D01*
X028447Y012167D01*
X028410Y012201D01*
X028376Y012238D01*
X028344Y012277D01*
X028316Y012318D01*
X028291Y012362D01*
X028270Y012407D01*
X028253Y012454D01*
X028239Y012502D01*
X028229Y012551D01*
X028223Y012601D01*
X028221Y012651D01*
X028221Y002651D02*
X028223Y002701D01*
X028229Y002751D01*
X028239Y002800D01*
X028253Y002848D01*
X028270Y002895D01*
X028291Y002940D01*
X028316Y002984D01*
X028344Y003025D01*
X028376Y003064D01*
X028410Y003101D01*
X028447Y003135D01*
X028487Y003165D01*
X028529Y003192D01*
X028573Y003216D01*
X028619Y003237D01*
X028666Y003253D01*
X028714Y003266D01*
X028764Y003275D01*
X028813Y003280D01*
X028864Y003281D01*
X028914Y003278D01*
X028963Y003271D01*
X029012Y003260D01*
X029060Y003245D01*
X029106Y003227D01*
X029151Y003205D01*
X029194Y003179D01*
X029235Y003150D01*
X029274Y003118D01*
X029310Y003083D01*
X029342Y003045D01*
X029372Y003005D01*
X029399Y002962D01*
X029422Y002918D01*
X029441Y002872D01*
X029457Y002824D01*
X029469Y002775D01*
X029477Y002726D01*
X029481Y002676D01*
X029481Y002626D01*
X029477Y002576D01*
X029469Y002527D01*
X029457Y002478D01*
X029441Y002430D01*
X029422Y002384D01*
X029399Y002340D01*
X029372Y002297D01*
X029342Y002257D01*
X029310Y002219D01*
X029274Y002184D01*
X029235Y002152D01*
X029194Y002123D01*
X029151Y002097D01*
X029106Y002075D01*
X029060Y002057D01*
X029012Y002042D01*
X028963Y002031D01*
X028914Y002024D01*
X028864Y002021D01*
X028813Y002022D01*
X028764Y002027D01*
X028714Y002036D01*
X028666Y002049D01*
X028619Y002065D01*
X028573Y002086D01*
X028529Y002110D01*
X028487Y002137D01*
X028447Y002167D01*
X028410Y002201D01*
X028376Y002238D01*
X028344Y002277D01*
X028316Y002318D01*
X028291Y002362D01*
X028270Y002407D01*
X028253Y002454D01*
X028239Y002502D01*
X028229Y002551D01*
X028223Y002601D01*
X028221Y002651D01*
D11*
X028851Y002651D03*
X028851Y012651D03*
X001351Y012651D03*
X001351Y002651D03*
D12*
X007341Y003651D02*
X007861Y003651D01*
X007861Y004651D02*
X007341Y004651D01*
X007341Y005651D02*
X007861Y005651D01*
X007861Y006651D02*
X007341Y006651D01*
X007341Y007651D02*
X007861Y007651D01*
X007861Y008651D02*
X007341Y008651D01*
X007341Y009651D02*
X007861Y009651D01*
X007861Y010651D02*
X007341Y010651D01*
X010341Y010651D02*
X010861Y010651D01*
X012101Y010411D02*
X012101Y009891D01*
X013101Y009891D02*
X013101Y010411D01*
X014101Y010411D02*
X014101Y009891D01*
X015101Y009891D02*
X015101Y010411D01*
X016101Y010411D02*
X016101Y009891D01*
X017101Y009891D02*
X017101Y010411D01*
X018101Y010411D02*
X018101Y009891D01*
X019341Y009651D02*
X019861Y009651D01*
X019861Y008651D02*
X019341Y008651D01*
X019341Y007651D02*
X019861Y007651D01*
X018101Y007411D02*
X018101Y006891D01*
X017101Y006891D02*
X017101Y007411D01*
X016101Y007411D02*
X016101Y006891D01*
X015101Y006891D02*
X015101Y007411D01*
X014101Y007411D02*
X014101Y006891D01*
X013101Y006891D02*
X013101Y007411D01*
X012101Y007411D02*
X012101Y006891D01*
X010861Y006651D02*
X010341Y006651D01*
X010341Y005651D02*
X010861Y005651D01*
X010861Y004651D02*
X010341Y004651D01*
X010341Y003651D02*
X010861Y003651D01*
X014091Y003151D02*
X014611Y003151D01*
X014611Y004151D02*
X014091Y004151D01*
X014091Y005151D02*
X014611Y005151D01*
X019341Y004651D02*
X019861Y004651D01*
X019861Y003651D02*
X019341Y003651D01*
X022341Y003651D02*
X022861Y003651D01*
X022861Y004651D02*
X022341Y004651D01*
X022341Y005651D02*
X022861Y005651D01*
X022861Y006651D02*
X022341Y006651D01*
X022341Y007651D02*
X022861Y007651D01*
X022861Y008651D02*
X022341Y008651D01*
X022341Y009651D02*
X022861Y009651D01*
X022861Y010651D02*
X022341Y010651D01*
X019861Y010651D02*
X019341Y010651D01*
X019341Y006651D02*
X019861Y006651D01*
X019861Y005651D02*
X019341Y005651D01*
X015601Y001661D02*
X015601Y001141D01*
X014601Y001141D02*
X014601Y001661D01*
X010861Y007651D02*
X010341Y007651D01*
X010341Y008651D02*
X010861Y008651D01*
X010861Y009651D02*
X010341Y009651D01*
D13*
X010351Y001698D02*
X010351Y001104D01*
X011351Y001104D02*
X011351Y001698D01*
X012351Y001698D02*
X012351Y001104D01*
X017851Y001104D02*
X017851Y001698D01*
X018851Y001698D02*
X018851Y001104D01*
X019851Y001104D02*
X019851Y001698D01*
X025351Y001698D02*
X025351Y001104D01*
X026351Y001104D02*
X026351Y001698D01*
X027351Y001698D02*
X027351Y001104D01*
X004851Y001104D02*
X004851Y001698D01*
X003851Y001698D02*
X003851Y001104D01*
X002851Y001104D02*
X002851Y001698D01*
D14*
X002851Y006151D03*
X003851Y006151D03*
X003851Y007151D03*
X002851Y007151D03*
X002851Y008151D03*
X003851Y008151D03*
X003851Y009151D03*
X002851Y009151D03*
X002851Y010151D03*
X003851Y010151D03*
X026351Y010151D03*
X027351Y010151D03*
X027351Y009151D03*
X026351Y009151D03*
X026351Y008151D03*
X027351Y008151D03*
X027351Y007151D03*
X026351Y007151D03*
X026351Y006151D03*
X027351Y006151D03*
D15*
X015601Y005135D03*
X015601Y003167D03*
D16*
X026351Y004401D03*
X027351Y004401D03*
X026851Y003651D03*
D17*
X024601Y004401D03*
X003851Y004151D03*
D18*
X002851Y004151D03*
X024601Y003401D03*
M02*
