G75*
G70*
%OFA0B0*%
%FSLAX24Y24*%
%IPPOS*%
%LPD*%
%AMOC8*
5,1,8,0,0,1.08239X$1,22.5*
%
%ADD10C,0.0000*%
%ADD11C,0.0631*%
%ADD12C,0.0560*%
%ADD13C,0.0634*%
%ADD14OC8,0.0780*%
%ADD15C,0.0540*%
%ADD16OC8,0.0560*%
%ADD17R,0.0690X0.0690*%
%ADD18C,0.0690*%
D10*
X000101Y000151D02*
X000101Y014147D01*
X001056Y012651D02*
X001058Y012685D01*
X001064Y012719D01*
X001074Y012752D01*
X001087Y012783D01*
X001105Y012813D01*
X001125Y012841D01*
X001149Y012866D01*
X001175Y012888D01*
X001203Y012906D01*
X001234Y012922D01*
X001266Y012934D01*
X001300Y012942D01*
X001334Y012946D01*
X001368Y012946D01*
X001402Y012942D01*
X001436Y012934D01*
X001468Y012922D01*
X001498Y012906D01*
X001527Y012888D01*
X001553Y012866D01*
X001577Y012841D01*
X001597Y012813D01*
X001615Y012783D01*
X001628Y012752D01*
X001638Y012719D01*
X001644Y012685D01*
X001646Y012651D01*
X001644Y012617D01*
X001638Y012583D01*
X001628Y012550D01*
X001615Y012519D01*
X001597Y012489D01*
X001577Y012461D01*
X001553Y012436D01*
X001527Y012414D01*
X001499Y012396D01*
X001468Y012380D01*
X001436Y012368D01*
X001402Y012360D01*
X001368Y012356D01*
X001334Y012356D01*
X001300Y012360D01*
X001266Y012368D01*
X001234Y012380D01*
X001203Y012396D01*
X001175Y012414D01*
X001149Y012436D01*
X001125Y012461D01*
X001105Y012489D01*
X001087Y012519D01*
X001074Y012550D01*
X001064Y012583D01*
X001058Y012617D01*
X001056Y012651D01*
X001056Y002651D02*
X001058Y002685D01*
X001064Y002719D01*
X001074Y002752D01*
X001087Y002783D01*
X001105Y002813D01*
X001125Y002841D01*
X001149Y002866D01*
X001175Y002888D01*
X001203Y002906D01*
X001234Y002922D01*
X001266Y002934D01*
X001300Y002942D01*
X001334Y002946D01*
X001368Y002946D01*
X001402Y002942D01*
X001436Y002934D01*
X001468Y002922D01*
X001498Y002906D01*
X001527Y002888D01*
X001553Y002866D01*
X001577Y002841D01*
X001597Y002813D01*
X001615Y002783D01*
X001628Y002752D01*
X001638Y002719D01*
X001644Y002685D01*
X001646Y002651D01*
X001644Y002617D01*
X001638Y002583D01*
X001628Y002550D01*
X001615Y002519D01*
X001597Y002489D01*
X001577Y002461D01*
X001553Y002436D01*
X001527Y002414D01*
X001499Y002396D01*
X001468Y002380D01*
X001436Y002368D01*
X001402Y002360D01*
X001368Y002356D01*
X001334Y002356D01*
X001300Y002360D01*
X001266Y002368D01*
X001234Y002380D01*
X001203Y002396D01*
X001175Y002414D01*
X001149Y002436D01*
X001125Y002461D01*
X001105Y002489D01*
X001087Y002519D01*
X001074Y002550D01*
X001064Y002583D01*
X001058Y002617D01*
X001056Y002651D01*
X000101Y000151D02*
X030096Y000151D01*
X030096Y014147D01*
X028556Y012651D02*
X028558Y012685D01*
X028564Y012719D01*
X028574Y012752D01*
X028587Y012783D01*
X028605Y012813D01*
X028625Y012841D01*
X028649Y012866D01*
X028675Y012888D01*
X028703Y012906D01*
X028734Y012922D01*
X028766Y012934D01*
X028800Y012942D01*
X028834Y012946D01*
X028868Y012946D01*
X028902Y012942D01*
X028936Y012934D01*
X028968Y012922D01*
X028998Y012906D01*
X029027Y012888D01*
X029053Y012866D01*
X029077Y012841D01*
X029097Y012813D01*
X029115Y012783D01*
X029128Y012752D01*
X029138Y012719D01*
X029144Y012685D01*
X029146Y012651D01*
X029144Y012617D01*
X029138Y012583D01*
X029128Y012550D01*
X029115Y012519D01*
X029097Y012489D01*
X029077Y012461D01*
X029053Y012436D01*
X029027Y012414D01*
X028999Y012396D01*
X028968Y012380D01*
X028936Y012368D01*
X028902Y012360D01*
X028868Y012356D01*
X028834Y012356D01*
X028800Y012360D01*
X028766Y012368D01*
X028734Y012380D01*
X028703Y012396D01*
X028675Y012414D01*
X028649Y012436D01*
X028625Y012461D01*
X028605Y012489D01*
X028587Y012519D01*
X028574Y012550D01*
X028564Y012583D01*
X028558Y012617D01*
X028556Y012651D01*
X028556Y002651D02*
X028558Y002685D01*
X028564Y002719D01*
X028574Y002752D01*
X028587Y002783D01*
X028605Y002813D01*
X028625Y002841D01*
X028649Y002866D01*
X028675Y002888D01*
X028703Y002906D01*
X028734Y002922D01*
X028766Y002934D01*
X028800Y002942D01*
X028834Y002946D01*
X028868Y002946D01*
X028902Y002942D01*
X028936Y002934D01*
X028968Y002922D01*
X028998Y002906D01*
X029027Y002888D01*
X029053Y002866D01*
X029077Y002841D01*
X029097Y002813D01*
X029115Y002783D01*
X029128Y002752D01*
X029138Y002719D01*
X029144Y002685D01*
X029146Y002651D01*
X029144Y002617D01*
X029138Y002583D01*
X029128Y002550D01*
X029115Y002519D01*
X029097Y002489D01*
X029077Y002461D01*
X029053Y002436D01*
X029027Y002414D01*
X028999Y002396D01*
X028968Y002380D01*
X028936Y002368D01*
X028902Y002360D01*
X028868Y002356D01*
X028834Y002356D01*
X028800Y002360D01*
X028766Y002368D01*
X028734Y002380D01*
X028703Y002396D01*
X028675Y002414D01*
X028649Y002436D01*
X028625Y002461D01*
X028605Y002489D01*
X028587Y002519D01*
X028574Y002550D01*
X028564Y002583D01*
X028558Y002617D01*
X028556Y002651D01*
D11*
X028851Y002651D03*
X028851Y012651D03*
X001351Y012651D03*
X001351Y002651D03*
D12*
X007341Y003651D02*
X007861Y003651D01*
X007861Y004651D02*
X007341Y004651D01*
X007341Y005651D02*
X007861Y005651D01*
X007861Y006651D02*
X007341Y006651D01*
X007341Y007651D02*
X007861Y007651D01*
X007861Y008651D02*
X007341Y008651D01*
X007341Y009651D02*
X007861Y009651D01*
X007861Y010651D02*
X007341Y010651D01*
X010341Y010651D02*
X010861Y010651D01*
X012101Y010411D02*
X012101Y009891D01*
X013101Y009891D02*
X013101Y010411D01*
X014101Y010411D02*
X014101Y009891D01*
X015101Y009891D02*
X015101Y010411D01*
X016101Y010411D02*
X016101Y009891D01*
X017101Y009891D02*
X017101Y010411D01*
X018101Y010411D02*
X018101Y009891D01*
X019341Y009651D02*
X019861Y009651D01*
X019861Y008651D02*
X019341Y008651D01*
X019341Y007651D02*
X019861Y007651D01*
X018101Y007411D02*
X018101Y006891D01*
X017101Y006891D02*
X017101Y007411D01*
X016101Y007411D02*
X016101Y006891D01*
X015101Y006891D02*
X015101Y007411D01*
X014101Y007411D02*
X014101Y006891D01*
X013101Y006891D02*
X013101Y007411D01*
X012101Y007411D02*
X012101Y006891D01*
X010861Y006651D02*
X010341Y006651D01*
X010341Y005651D02*
X010861Y005651D01*
X010861Y004651D02*
X010341Y004651D01*
X010341Y003651D02*
X010861Y003651D01*
X014091Y003151D02*
X014611Y003151D01*
X014611Y004151D02*
X014091Y004151D01*
X014091Y005151D02*
X014611Y005151D01*
X019341Y004651D02*
X019861Y004651D01*
X019861Y003651D02*
X019341Y003651D01*
X022341Y003651D02*
X022861Y003651D01*
X022861Y004651D02*
X022341Y004651D01*
X022341Y005651D02*
X022861Y005651D01*
X022861Y006651D02*
X022341Y006651D01*
X022341Y007651D02*
X022861Y007651D01*
X022861Y008651D02*
X022341Y008651D01*
X022341Y009651D02*
X022861Y009651D01*
X022861Y010651D02*
X022341Y010651D01*
X019861Y010651D02*
X019341Y010651D01*
X019341Y006651D02*
X019861Y006651D01*
X019861Y005651D02*
X019341Y005651D01*
X015601Y001661D02*
X015601Y001141D01*
X014601Y001141D02*
X014601Y001661D01*
X010861Y007651D02*
X010341Y007651D01*
X010341Y008651D02*
X010861Y008651D01*
X010861Y009651D02*
X010341Y009651D01*
D13*
X010351Y001698D02*
X010351Y001104D01*
X011351Y001104D02*
X011351Y001698D01*
X012351Y001698D02*
X012351Y001104D01*
X017851Y001104D02*
X017851Y001698D01*
X018851Y001698D02*
X018851Y001104D01*
X019851Y001104D02*
X019851Y001698D01*
X025351Y001698D02*
X025351Y001104D01*
X026351Y001104D02*
X026351Y001698D01*
X027351Y001698D02*
X027351Y001104D01*
X004851Y001104D02*
X004851Y001698D01*
X003851Y001698D02*
X003851Y001104D01*
X002851Y001104D02*
X002851Y001698D01*
D14*
X002851Y006151D03*
X003851Y006151D03*
X003851Y007151D03*
X002851Y007151D03*
X002851Y008151D03*
X003851Y008151D03*
X003851Y009151D03*
X002851Y009151D03*
X002851Y010151D03*
X003851Y010151D03*
X026351Y010151D03*
X027351Y010151D03*
X027351Y009151D03*
X026351Y009151D03*
X026351Y008151D03*
X027351Y008151D03*
X027351Y007151D03*
X026351Y007151D03*
X026351Y006151D03*
X027351Y006151D03*
D15*
X015601Y005135D03*
X015601Y003167D03*
D16*
X026351Y004401D03*
X027351Y004401D03*
X026851Y003651D03*
D17*
X024601Y004401D03*
X003851Y004151D03*
D18*
X002851Y004151D03*
X024601Y003401D03*
M02*
