%
M48
M72
T01C0.0120
T02C0.0276
T03C0.0300
T04C0.0320
T05C0.0394
T06C0.0400
T07C0.0591
%
T01
X12187Y8354
X11333Y8935
T02
X13367Y2651
X15335Y2651
X25367Y4401
X27335Y4401
T03
X16601Y3385
X16601Y1417
T04
X15601Y1401
X14601Y1401
X19601Y3901
X19601Y4901
X19601Y5901
X19601Y6901
X18101Y7151
X17101Y7151
X16101Y7151
X15101Y7151
X14101Y7151
X13101Y7151
X12101Y7151
X10601Y7151
X10601Y6151
X10601Y5151
X10601Y4151
X13101Y4401
X14101Y4401
X15101Y4401
X7601Y4151
X7601Y5151
X7601Y6151
X7601Y7151
X7601Y8151
X7601Y9151
X7601Y10151
X7601Y11151
X10601Y11151
X10601Y10151
X12101Y10151
X13101Y10151
X14101Y10151
X15101Y10151
X16101Y10151
X17101Y10151
X18101Y10151
X19601Y9901
X19601Y8901
X19601Y7901
X22601Y7901
X22601Y6901
X22601Y5901
X22601Y4901
X22601Y3901
X22601Y8901
X22601Y9901
X22601Y10901
X19601Y10901
X10601Y9151
X10601Y8151
T05
X2851Y1401
X3851Y1401
X4851Y1401
X10351Y1401
X11351Y1401
X12351Y1401
X17851Y1401
X18851Y1401
X19851Y1401
X25351Y1401
X26351Y1401
X27351Y1401
T06
X27351Y6151
X26351Y6151
X26351Y7151
X27351Y7151
X27351Y8151
X26351Y8151
X26351Y9151
X27351Y9151
X27351Y10151
X26351Y10151
X3851Y10151
X2851Y10151
X2851Y9151
X3851Y9151
X3851Y8151
X2851Y8151
X2851Y7151
X3851Y7151
X3851Y6151
X2851Y6151
T07
X1351Y2651
X1351Y12651
X28851Y12651
X28851Y2651
M30
