G75*
G70*
%OFA0B0*%
%FSLAX24Y24*%
%IPPOS*%
%LPD*%
%AMOC8*
5,1,8,0,0,1.08239X$1,22.5*
%
%ADD10C,0.0000*%
%ADD11C,0.0520*%
%ADD12C,0.0594*%
%ADD13OC8,0.0740*%
%ADD14C,0.0500*%
%ADD15OC8,0.0520*%
%ADD16R,0.0650X0.0650*%
%ADD17C,0.0650*%
%ADD18C,0.0200*%
%ADD19C,0.0150*%
%ADD20C,0.0240*%
D10*
X000101Y000151D02*
X000101Y014147D01*
X001056Y012651D02*
X001058Y012685D01*
X001064Y012719D01*
X001074Y012752D01*
X001087Y012783D01*
X001105Y012813D01*
X001125Y012841D01*
X001149Y012866D01*
X001175Y012888D01*
X001203Y012906D01*
X001234Y012922D01*
X001266Y012934D01*
X001300Y012942D01*
X001334Y012946D01*
X001368Y012946D01*
X001402Y012942D01*
X001436Y012934D01*
X001468Y012922D01*
X001498Y012906D01*
X001527Y012888D01*
X001553Y012866D01*
X001577Y012841D01*
X001597Y012813D01*
X001615Y012783D01*
X001628Y012752D01*
X001638Y012719D01*
X001644Y012685D01*
X001646Y012651D01*
X001644Y012617D01*
X001638Y012583D01*
X001628Y012550D01*
X001615Y012519D01*
X001597Y012489D01*
X001577Y012461D01*
X001553Y012436D01*
X001527Y012414D01*
X001499Y012396D01*
X001468Y012380D01*
X001436Y012368D01*
X001402Y012360D01*
X001368Y012356D01*
X001334Y012356D01*
X001300Y012360D01*
X001266Y012368D01*
X001234Y012380D01*
X001203Y012396D01*
X001175Y012414D01*
X001149Y012436D01*
X001125Y012461D01*
X001105Y012489D01*
X001087Y012519D01*
X001074Y012550D01*
X001064Y012583D01*
X001058Y012617D01*
X001056Y012651D01*
X001056Y002651D02*
X001058Y002685D01*
X001064Y002719D01*
X001074Y002752D01*
X001087Y002783D01*
X001105Y002813D01*
X001125Y002841D01*
X001149Y002866D01*
X001175Y002888D01*
X001203Y002906D01*
X001234Y002922D01*
X001266Y002934D01*
X001300Y002942D01*
X001334Y002946D01*
X001368Y002946D01*
X001402Y002942D01*
X001436Y002934D01*
X001468Y002922D01*
X001498Y002906D01*
X001527Y002888D01*
X001553Y002866D01*
X001577Y002841D01*
X001597Y002813D01*
X001615Y002783D01*
X001628Y002752D01*
X001638Y002719D01*
X001644Y002685D01*
X001646Y002651D01*
X001644Y002617D01*
X001638Y002583D01*
X001628Y002550D01*
X001615Y002519D01*
X001597Y002489D01*
X001577Y002461D01*
X001553Y002436D01*
X001527Y002414D01*
X001499Y002396D01*
X001468Y002380D01*
X001436Y002368D01*
X001402Y002360D01*
X001368Y002356D01*
X001334Y002356D01*
X001300Y002360D01*
X001266Y002368D01*
X001234Y002380D01*
X001203Y002396D01*
X001175Y002414D01*
X001149Y002436D01*
X001125Y002461D01*
X001105Y002489D01*
X001087Y002519D01*
X001074Y002550D01*
X001064Y002583D01*
X001058Y002617D01*
X001056Y002651D01*
X000101Y000151D02*
X030096Y000151D01*
X030096Y014147D01*
X028556Y012651D02*
X028558Y012685D01*
X028564Y012719D01*
X028574Y012752D01*
X028587Y012783D01*
X028605Y012813D01*
X028625Y012841D01*
X028649Y012866D01*
X028675Y012888D01*
X028703Y012906D01*
X028734Y012922D01*
X028766Y012934D01*
X028800Y012942D01*
X028834Y012946D01*
X028868Y012946D01*
X028902Y012942D01*
X028936Y012934D01*
X028968Y012922D01*
X028998Y012906D01*
X029027Y012888D01*
X029053Y012866D01*
X029077Y012841D01*
X029097Y012813D01*
X029115Y012783D01*
X029128Y012752D01*
X029138Y012719D01*
X029144Y012685D01*
X029146Y012651D01*
X029144Y012617D01*
X029138Y012583D01*
X029128Y012550D01*
X029115Y012519D01*
X029097Y012489D01*
X029077Y012461D01*
X029053Y012436D01*
X029027Y012414D01*
X028999Y012396D01*
X028968Y012380D01*
X028936Y012368D01*
X028902Y012360D01*
X028868Y012356D01*
X028834Y012356D01*
X028800Y012360D01*
X028766Y012368D01*
X028734Y012380D01*
X028703Y012396D01*
X028675Y012414D01*
X028649Y012436D01*
X028625Y012461D01*
X028605Y012489D01*
X028587Y012519D01*
X028574Y012550D01*
X028564Y012583D01*
X028558Y012617D01*
X028556Y012651D01*
X028556Y002651D02*
X028558Y002685D01*
X028564Y002719D01*
X028574Y002752D01*
X028587Y002783D01*
X028605Y002813D01*
X028625Y002841D01*
X028649Y002866D01*
X028675Y002888D01*
X028703Y002906D01*
X028734Y002922D01*
X028766Y002934D01*
X028800Y002942D01*
X028834Y002946D01*
X028868Y002946D01*
X028902Y002942D01*
X028936Y002934D01*
X028968Y002922D01*
X028998Y002906D01*
X029027Y002888D01*
X029053Y002866D01*
X029077Y002841D01*
X029097Y002813D01*
X029115Y002783D01*
X029128Y002752D01*
X029138Y002719D01*
X029144Y002685D01*
X029146Y002651D01*
X029144Y002617D01*
X029138Y002583D01*
X029128Y002550D01*
X029115Y002519D01*
X029097Y002489D01*
X029077Y002461D01*
X029053Y002436D01*
X029027Y002414D01*
X028999Y002396D01*
X028968Y002380D01*
X028936Y002368D01*
X028902Y002360D01*
X028868Y002356D01*
X028834Y002356D01*
X028800Y002360D01*
X028766Y002368D01*
X028734Y002380D01*
X028703Y002396D01*
X028675Y002414D01*
X028649Y002436D01*
X028625Y002461D01*
X028605Y002489D01*
X028587Y002519D01*
X028574Y002550D01*
X028564Y002583D01*
X028558Y002617D01*
X028556Y002651D01*
D11*
X022861Y003651D02*
X022341Y003651D01*
X022341Y004651D02*
X022861Y004651D01*
X022861Y005651D02*
X022341Y005651D01*
X022341Y006651D02*
X022861Y006651D01*
X022861Y007651D02*
X022341Y007651D01*
X022341Y008651D02*
X022861Y008651D01*
X022861Y009651D02*
X022341Y009651D01*
X022341Y010651D02*
X022861Y010651D01*
X019861Y010651D02*
X019341Y010651D01*
X018101Y010411D02*
X018101Y009891D01*
X017101Y009891D02*
X017101Y010411D01*
X016101Y010411D02*
X016101Y009891D01*
X015101Y009891D02*
X015101Y010411D01*
X014101Y010411D02*
X014101Y009891D01*
X013101Y009891D02*
X013101Y010411D01*
X012101Y010411D02*
X012101Y009891D01*
X010861Y009651D02*
X010341Y009651D01*
X010341Y008651D02*
X010861Y008651D01*
X010861Y007651D02*
X010341Y007651D01*
X012101Y007411D02*
X012101Y006891D01*
X013101Y006891D02*
X013101Y007411D01*
X014101Y007411D02*
X014101Y006891D01*
X015101Y006891D02*
X015101Y007411D01*
X016101Y007411D02*
X016101Y006891D01*
X017101Y006891D02*
X017101Y007411D01*
X018101Y007411D02*
X018101Y006891D01*
X019341Y006651D02*
X019861Y006651D01*
X019861Y005651D02*
X019341Y005651D01*
X019341Y004651D02*
X019861Y004651D01*
X019861Y003651D02*
X019341Y003651D01*
X015601Y001661D02*
X015601Y001141D01*
X014601Y001141D02*
X014601Y001661D01*
X014611Y003151D02*
X014091Y003151D01*
X014091Y004151D02*
X014611Y004151D01*
X014611Y005151D02*
X014091Y005151D01*
X010861Y004651D02*
X010341Y004651D01*
X010341Y003651D02*
X010861Y003651D01*
X007861Y003651D02*
X007341Y003651D01*
X007341Y004651D02*
X007861Y004651D01*
X007861Y005651D02*
X007341Y005651D01*
X007341Y006651D02*
X007861Y006651D01*
X007861Y007651D02*
X007341Y007651D01*
X007341Y008651D02*
X007861Y008651D01*
X007861Y009651D02*
X007341Y009651D01*
X007341Y010651D02*
X007861Y010651D01*
X010341Y010651D02*
X010861Y010651D01*
X010861Y006651D02*
X010341Y006651D01*
X010341Y005651D02*
X010861Y005651D01*
X019341Y007651D02*
X019861Y007651D01*
X019861Y008651D02*
X019341Y008651D01*
X019341Y009651D02*
X019861Y009651D01*
D12*
X019851Y001698D02*
X019851Y001104D01*
X018851Y001104D02*
X018851Y001698D01*
X017851Y001698D02*
X017851Y001104D01*
X012351Y001104D02*
X012351Y001698D01*
X011351Y001698D02*
X011351Y001104D01*
X010351Y001104D02*
X010351Y001698D01*
X004851Y001698D02*
X004851Y001104D01*
X003851Y001104D02*
X003851Y001698D01*
X002851Y001698D02*
X002851Y001104D01*
X025351Y001104D02*
X025351Y001698D01*
X026351Y001698D02*
X026351Y001104D01*
X027351Y001104D02*
X027351Y001698D01*
D13*
X027351Y006151D03*
X026351Y006151D03*
X026351Y007151D03*
X027351Y007151D03*
X027351Y008151D03*
X026351Y008151D03*
X026351Y009151D03*
X027351Y009151D03*
X027351Y010151D03*
X026351Y010151D03*
X003851Y010151D03*
X002851Y010151D03*
X002851Y009151D03*
X003851Y009151D03*
X003851Y008151D03*
X002851Y008151D03*
X002851Y007151D03*
X003851Y007151D03*
X003851Y006151D03*
X002851Y006151D03*
D14*
X015601Y005135D03*
X015601Y003167D03*
D15*
X026351Y004401D03*
X027351Y004401D03*
X026851Y003651D03*
D16*
X003851Y004151D03*
D17*
X002851Y004151D03*
D18*
X004636Y002366D01*
X006921Y004651D01*
X007601Y004651D01*
X008492Y003760D01*
X008492Y002298D01*
X010145Y000645D01*
X010789Y000645D01*
X011471Y001328D01*
X012167Y000631D01*
X013411Y000631D01*
X014181Y001401D01*
X014601Y001401D01*
X015021Y001401D01*
X015021Y001126D01*
X015507Y000639D01*
X018060Y000639D01*
X018394Y000973D01*
X018394Y001401D01*
X018851Y001401D01*
X019609Y000643D01*
X020047Y000643D01*
X020333Y000929D01*
X020333Y003599D01*
X020281Y003651D01*
X019601Y003651D01*
X020281Y003651D02*
X020281Y006651D01*
X019601Y006651D01*
X018101Y007151D02*
X018101Y007831D01*
X016101Y007831D01*
X016101Y007151D01*
X016101Y007831D02*
X016101Y009471D01*
X016101Y010151D01*
X012521Y009051D02*
X012521Y005126D01*
X014075Y003571D01*
X014351Y003571D01*
X014351Y003151D01*
X014351Y002731D01*
X018492Y002731D01*
X019394Y001830D01*
X019394Y001401D01*
X019851Y001401D01*
X026351Y001401D02*
X026351Y002731D01*
X026851Y003231D01*
X026851Y003651D01*
X026851Y005121D01*
X027351Y005621D01*
X027351Y006151D01*
X026851Y005121D02*
X024811Y005121D01*
X023281Y006651D01*
X022601Y006651D01*
X023281Y006651D02*
X023281Y007651D01*
X022601Y007651D01*
X012521Y009051D02*
X012101Y009471D01*
X012101Y010151D01*
X004636Y002366D02*
X004308Y002038D01*
X004308Y001401D01*
X003851Y001401D01*
X011351Y001401D02*
X011471Y001401D01*
X011471Y001328D01*
D19*
X010351Y001401D02*
X010351Y002741D01*
X007941Y005151D01*
X007257Y005151D01*
X006946Y005462D01*
X006946Y007651D01*
X007601Y007651D01*
X006946Y008528D02*
X006946Y008651D01*
X007601Y008651D01*
X006946Y008528D02*
X003029Y004611D01*
X002657Y004611D01*
X002377Y004332D01*
X002377Y001443D01*
X002419Y001401D01*
X002851Y001401D01*
X009946Y004651D02*
X009946Y008142D01*
X008035Y010053D01*
X006257Y010053D01*
X004356Y008151D01*
X003851Y008151D01*
X002851Y007151D02*
X002342Y007660D01*
X002342Y010386D01*
X003446Y011491D01*
X011590Y011491D01*
X012526Y010555D01*
X012526Y009903D01*
X012934Y009496D01*
X015101Y009496D01*
X015101Y010151D01*
X015101Y010806D01*
X016268Y010806D01*
X016496Y010579D01*
X016496Y009901D01*
X019141Y007256D01*
X020032Y007256D01*
X021946Y005343D01*
X021946Y003651D01*
X022601Y003651D01*
X017851Y001401D02*
X017419Y001401D01*
X016492Y002328D01*
X011104Y002328D01*
X008256Y005176D01*
X008256Y006651D01*
X007601Y006651D01*
X010258Y008151D02*
X010924Y008151D01*
X011542Y007533D01*
X011542Y006496D01*
X011542Y003937D01*
X011256Y003651D01*
X010601Y003651D01*
X010601Y004651D02*
X009946Y004651D01*
X013685Y004996D02*
X013685Y006080D01*
X014101Y006496D01*
X014101Y007151D01*
X012101Y007151D02*
X012101Y007991D01*
X011015Y009077D01*
X010320Y009077D01*
X008116Y011281D01*
X003981Y011281D01*
X002851Y010151D01*
X003851Y009151D02*
X004356Y009151D01*
X006259Y011054D01*
X008046Y011054D01*
X008765Y010334D01*
X008765Y009644D01*
X010258Y008151D01*
X007601Y009651D02*
X006946Y009651D01*
X004446Y007151D01*
X004356Y007151D01*
X003851Y007151D01*
X013101Y010151D02*
X013101Y010806D01*
X013568Y011274D01*
X027261Y011274D01*
X028076Y010458D01*
X028076Y007876D01*
X027351Y007151D01*
X026351Y007151D02*
X025846Y007151D01*
X023763Y009234D01*
X017540Y009234D01*
X017761Y009491D02*
X017101Y010151D01*
X017761Y009491D02*
X018595Y009491D01*
X019158Y010054D01*
X023943Y010054D01*
X025846Y008151D01*
X026351Y008151D01*
X027351Y008151D02*
X027866Y008666D01*
X027866Y010371D01*
X027174Y011064D01*
X020668Y011064D01*
X020256Y010651D01*
X019601Y010651D01*
X013685Y004996D02*
X014135Y004546D01*
X014351Y004546D01*
X014351Y004151D01*
D20*
X011542Y006496D03*
X017540Y009234D03*
M02*
