G75*
G70*
%OFA0B0*%
%FSLAX24Y24*%
%IPPOS*%
%LPD*%
%AMOC8*
5,1,8,0,0,1.08239X$1,22.5*
%
%ADD10C,0.0000*%
%ADD11C,0.0060*%
%ADD12C,0.0040*%
%ADD13C,0.0100*%
%ADD14C,0.0050*%
%ADD15C,0.0080*%
%ADD16R,0.0200X0.0200*%
%ADD17C,0.0010*%
D10*
X000101Y000151D02*
X000101Y014147D01*
X030096Y014147D01*
X030096Y000151D01*
X000101Y000151D01*
X001056Y002651D02*
X001058Y002685D01*
X001064Y002719D01*
X001074Y002752D01*
X001087Y002783D01*
X001105Y002813D01*
X001125Y002841D01*
X001149Y002866D01*
X001175Y002888D01*
X001203Y002906D01*
X001234Y002922D01*
X001266Y002934D01*
X001300Y002942D01*
X001334Y002946D01*
X001368Y002946D01*
X001402Y002942D01*
X001436Y002934D01*
X001468Y002922D01*
X001498Y002906D01*
X001527Y002888D01*
X001553Y002866D01*
X001577Y002841D01*
X001597Y002813D01*
X001615Y002783D01*
X001628Y002752D01*
X001638Y002719D01*
X001644Y002685D01*
X001646Y002651D01*
X001644Y002617D01*
X001638Y002583D01*
X001628Y002550D01*
X001615Y002519D01*
X001597Y002489D01*
X001577Y002461D01*
X001553Y002436D01*
X001527Y002414D01*
X001499Y002396D01*
X001468Y002380D01*
X001436Y002368D01*
X001402Y002360D01*
X001368Y002356D01*
X001334Y002356D01*
X001300Y002360D01*
X001266Y002368D01*
X001234Y002380D01*
X001203Y002396D01*
X001175Y002414D01*
X001149Y002436D01*
X001125Y002461D01*
X001105Y002489D01*
X001087Y002519D01*
X001074Y002550D01*
X001064Y002583D01*
X001058Y002617D01*
X001056Y002651D01*
X001056Y012651D02*
X001058Y012685D01*
X001064Y012719D01*
X001074Y012752D01*
X001087Y012783D01*
X001105Y012813D01*
X001125Y012841D01*
X001149Y012866D01*
X001175Y012888D01*
X001203Y012906D01*
X001234Y012922D01*
X001266Y012934D01*
X001300Y012942D01*
X001334Y012946D01*
X001368Y012946D01*
X001402Y012942D01*
X001436Y012934D01*
X001468Y012922D01*
X001498Y012906D01*
X001527Y012888D01*
X001553Y012866D01*
X001577Y012841D01*
X001597Y012813D01*
X001615Y012783D01*
X001628Y012752D01*
X001638Y012719D01*
X001644Y012685D01*
X001646Y012651D01*
X001644Y012617D01*
X001638Y012583D01*
X001628Y012550D01*
X001615Y012519D01*
X001597Y012489D01*
X001577Y012461D01*
X001553Y012436D01*
X001527Y012414D01*
X001499Y012396D01*
X001468Y012380D01*
X001436Y012368D01*
X001402Y012360D01*
X001368Y012356D01*
X001334Y012356D01*
X001300Y012360D01*
X001266Y012368D01*
X001234Y012380D01*
X001203Y012396D01*
X001175Y012414D01*
X001149Y012436D01*
X001125Y012461D01*
X001105Y012489D01*
X001087Y012519D01*
X001074Y012550D01*
X001064Y012583D01*
X001058Y012617D01*
X001056Y012651D01*
X028556Y012651D02*
X028558Y012685D01*
X028564Y012719D01*
X028574Y012752D01*
X028587Y012783D01*
X028605Y012813D01*
X028625Y012841D01*
X028649Y012866D01*
X028675Y012888D01*
X028703Y012906D01*
X028734Y012922D01*
X028766Y012934D01*
X028800Y012942D01*
X028834Y012946D01*
X028868Y012946D01*
X028902Y012942D01*
X028936Y012934D01*
X028968Y012922D01*
X028998Y012906D01*
X029027Y012888D01*
X029053Y012866D01*
X029077Y012841D01*
X029097Y012813D01*
X029115Y012783D01*
X029128Y012752D01*
X029138Y012719D01*
X029144Y012685D01*
X029146Y012651D01*
X029144Y012617D01*
X029138Y012583D01*
X029128Y012550D01*
X029115Y012519D01*
X029097Y012489D01*
X029077Y012461D01*
X029053Y012436D01*
X029027Y012414D01*
X028999Y012396D01*
X028968Y012380D01*
X028936Y012368D01*
X028902Y012360D01*
X028868Y012356D01*
X028834Y012356D01*
X028800Y012360D01*
X028766Y012368D01*
X028734Y012380D01*
X028703Y012396D01*
X028675Y012414D01*
X028649Y012436D01*
X028625Y012461D01*
X028605Y012489D01*
X028587Y012519D01*
X028574Y012550D01*
X028564Y012583D01*
X028558Y012617D01*
X028556Y012651D01*
X028556Y002651D02*
X028558Y002685D01*
X028564Y002719D01*
X028574Y002752D01*
X028587Y002783D01*
X028605Y002813D01*
X028625Y002841D01*
X028649Y002866D01*
X028675Y002888D01*
X028703Y002906D01*
X028734Y002922D01*
X028766Y002934D01*
X028800Y002942D01*
X028834Y002946D01*
X028868Y002946D01*
X028902Y002942D01*
X028936Y002934D01*
X028968Y002922D01*
X028998Y002906D01*
X029027Y002888D01*
X029053Y002866D01*
X029077Y002841D01*
X029097Y002813D01*
X029115Y002783D01*
X029128Y002752D01*
X029138Y002719D01*
X029144Y002685D01*
X029146Y002651D01*
X029144Y002617D01*
X029138Y002583D01*
X029128Y002550D01*
X029115Y002519D01*
X029097Y002489D01*
X029077Y002461D01*
X029053Y002436D01*
X029027Y002414D01*
X028999Y002396D01*
X028968Y002380D01*
X028936Y002368D01*
X028902Y002360D01*
X028868Y002356D01*
X028834Y002356D01*
X028800Y002360D01*
X028766Y002368D01*
X028734Y002380D01*
X028703Y002396D01*
X028675Y002414D01*
X028649Y002436D01*
X028625Y002461D01*
X028605Y002489D01*
X028587Y002519D01*
X028574Y002550D01*
X028564Y002583D01*
X028558Y002617D01*
X028556Y002651D01*
D11*
X027601Y005651D02*
X026101Y005651D01*
X025851Y005901D01*
X025851Y006401D01*
X026101Y006651D01*
X027601Y006651D01*
X027851Y006401D01*
X027851Y005901D01*
X027601Y005651D01*
X027601Y006651D02*
X027851Y006901D01*
X027851Y007401D01*
X027601Y007651D01*
X026101Y007651D01*
X025851Y007401D01*
X025851Y006901D01*
X026101Y006651D01*
X026101Y007651D02*
X025851Y007901D01*
X025851Y008401D01*
X026101Y008651D01*
X027601Y008651D01*
X027851Y008401D01*
X027851Y007901D01*
X027601Y007651D01*
X027601Y008651D02*
X027851Y008901D01*
X027851Y009401D01*
X027601Y009651D01*
X026101Y009651D01*
X025851Y009401D01*
X025851Y008901D01*
X026101Y008651D01*
X026101Y009651D02*
X025851Y009901D01*
X025851Y010401D01*
X026101Y010651D01*
X027601Y010651D01*
X027851Y010401D01*
X027851Y009901D01*
X027601Y009651D01*
X022251Y011401D02*
X021501Y011401D01*
X021499Y011362D01*
X021493Y011323D01*
X021484Y011285D01*
X021471Y011248D01*
X021454Y011212D01*
X021434Y011179D01*
X021410Y011147D01*
X021384Y011118D01*
X021355Y011092D01*
X021323Y011068D01*
X021290Y011048D01*
X021254Y011031D01*
X021217Y011018D01*
X021179Y011009D01*
X021140Y011003D01*
X021101Y011001D01*
X021062Y011003D01*
X021023Y011009D01*
X020985Y011018D01*
X020948Y011031D01*
X020912Y011048D01*
X020879Y011068D01*
X020847Y011092D01*
X020818Y011118D01*
X020792Y011147D01*
X020768Y011179D01*
X020748Y011212D01*
X020731Y011248D01*
X020718Y011285D01*
X020709Y011323D01*
X020703Y011362D01*
X020701Y011401D01*
X019951Y011401D01*
X019951Y003401D01*
X022251Y003401D01*
X022251Y011401D01*
X022683Y013181D02*
X022896Y013181D01*
X023003Y013288D01*
X023003Y013501D01*
X022789Y013501D01*
X022576Y013288D02*
X022683Y013181D01*
X022576Y013288D02*
X022576Y013715D01*
X022683Y013822D01*
X022896Y013822D01*
X023003Y013715D01*
X023327Y013608D02*
X023541Y013608D01*
X023647Y013501D01*
X023647Y013181D01*
X023327Y013181D01*
X023220Y013288D01*
X023327Y013395D01*
X023647Y013395D01*
X023865Y013608D02*
X024185Y013608D01*
X024292Y013501D01*
X024292Y013288D01*
X024185Y013181D01*
X023865Y013181D01*
X023865Y013822D01*
X024510Y013501D02*
X024616Y013608D01*
X024830Y013608D01*
X024937Y013501D01*
X024937Y013395D01*
X024510Y013395D01*
X024510Y013501D02*
X024510Y013288D01*
X024616Y013181D01*
X024830Y013181D01*
X021714Y013181D02*
X021394Y013181D01*
X021287Y013288D01*
X021287Y013501D01*
X021394Y013608D01*
X021714Y013608D01*
X021714Y013822D02*
X021714Y013181D01*
X021069Y013181D02*
X021069Y013501D01*
X020963Y013608D01*
X020642Y013608D01*
X020642Y013181D01*
X020425Y013181D02*
X020105Y013181D01*
X019998Y013288D01*
X020105Y013395D01*
X020425Y013395D01*
X020425Y013501D02*
X020425Y013181D01*
X020425Y013501D02*
X020318Y013608D01*
X020105Y013608D01*
X019136Y013608D02*
X018816Y013395D01*
X019136Y013181D01*
X018816Y013181D02*
X018816Y013822D01*
X018599Y013608D02*
X018278Y013608D01*
X018172Y013501D01*
X018172Y013288D01*
X018278Y013181D01*
X018599Y013181D01*
X017956Y013181D02*
X017742Y013181D01*
X017849Y013181D02*
X017849Y013608D01*
X017742Y013608D01*
X017849Y013822D02*
X017849Y013928D01*
X017524Y013822D02*
X017524Y013181D01*
X017097Y013822D01*
X017097Y013181D01*
X016235Y013181D02*
X015915Y013181D01*
X015808Y013288D01*
X015808Y013608D01*
X015591Y013501D02*
X015484Y013608D01*
X015164Y013608D01*
X015591Y013501D02*
X015591Y013288D01*
X015484Y013181D01*
X015164Y013181D01*
X015164Y013822D01*
X014302Y013608D02*
X013982Y013608D01*
X013875Y013501D01*
X013982Y013395D01*
X014195Y013395D01*
X014302Y013288D01*
X014195Y013181D01*
X013875Y013181D01*
X013551Y013181D02*
X013337Y013181D01*
X013230Y013288D01*
X013230Y013501D01*
X013337Y013608D01*
X013551Y013608D01*
X013657Y013501D01*
X013657Y013395D01*
X013230Y013395D01*
X013014Y013181D02*
X012801Y013181D01*
X012907Y013181D02*
X012907Y013822D01*
X012801Y013822D01*
X012583Y013608D02*
X012583Y013181D01*
X012263Y013181D01*
X012156Y013288D01*
X012156Y013608D01*
X011939Y013608D02*
X011618Y013608D01*
X011512Y013501D01*
X011512Y013288D01*
X011618Y013181D01*
X011939Y013181D01*
X011939Y013822D01*
X011294Y013501D02*
X011187Y013608D01*
X010974Y013608D01*
X010867Y013501D01*
X010867Y013288D01*
X010974Y013181D01*
X011187Y013181D01*
X011294Y013288D01*
X011294Y013501D01*
X010650Y013501D02*
X010650Y013181D01*
X010436Y013181D02*
X010436Y013501D01*
X010543Y013608D01*
X010650Y013501D01*
X010436Y013501D02*
X010329Y013608D01*
X010223Y013608D01*
X010223Y013181D01*
X009362Y013181D02*
X009256Y013181D01*
X009256Y013288D01*
X009362Y013288D01*
X009362Y013181D01*
X008931Y013181D02*
X008718Y013181D01*
X008611Y013288D01*
X008611Y013501D01*
X008718Y013608D01*
X008931Y013608D01*
X009038Y013501D01*
X009038Y013395D01*
X008611Y013395D01*
X008394Y013288D02*
X008287Y013395D01*
X008073Y013395D01*
X007967Y013501D01*
X008073Y013608D01*
X008394Y013608D01*
X008394Y013288D02*
X008287Y013181D01*
X007967Y013181D01*
X007749Y013181D02*
X007749Y013501D01*
X007642Y013608D01*
X007322Y013608D01*
X007322Y013181D01*
X006998Y013181D02*
X006784Y013181D01*
X006678Y013288D01*
X006678Y013501D01*
X006784Y013608D01*
X006998Y013608D01*
X007105Y013501D01*
X007105Y013395D01*
X006678Y013395D01*
X006460Y013395D02*
X006460Y013288D01*
X006353Y013181D01*
X006140Y013181D01*
X006033Y013288D01*
X006140Y013501D02*
X006353Y013501D01*
X006460Y013395D01*
X006140Y013501D02*
X006033Y013608D01*
X006033Y013715D01*
X006140Y013822D01*
X006353Y013822D01*
X006460Y013715D01*
X005816Y013608D02*
X005816Y013074D01*
X005709Y012968D01*
X005602Y012968D01*
X005388Y012928D02*
X005388Y012822D01*
X005388Y012608D02*
X005388Y012181D01*
X005281Y012181D02*
X005495Y012181D01*
X005711Y012288D02*
X005818Y012181D01*
X006031Y012181D01*
X006138Y012288D01*
X006138Y012501D01*
X006031Y012608D01*
X005818Y012608D01*
X005711Y012501D01*
X005711Y012288D01*
X005388Y012608D02*
X005281Y012608D01*
X005064Y012608D02*
X004743Y012608D01*
X004637Y012501D01*
X004743Y012395D01*
X004957Y012395D01*
X005064Y012288D01*
X004957Y012181D01*
X004637Y012181D01*
X004420Y012181D02*
X004207Y012181D01*
X004314Y012181D02*
X004314Y012608D01*
X004207Y012608D01*
X003989Y012608D02*
X003776Y012181D01*
X003562Y012608D01*
X003345Y012501D02*
X003345Y012395D01*
X002918Y012395D01*
X002918Y012501D02*
X002918Y012288D01*
X003025Y012181D01*
X003238Y012181D01*
X003345Y012501D02*
X003238Y012608D01*
X003025Y012608D01*
X002918Y012501D01*
X002701Y012608D02*
X002594Y012608D01*
X002381Y012395D01*
X002381Y012608D02*
X002381Y012181D01*
X003025Y012968D02*
X003025Y013608D01*
X003346Y013608D01*
X003452Y013501D01*
X003452Y013288D01*
X003346Y013181D01*
X003025Y013181D01*
X002808Y013288D02*
X002701Y013181D01*
X002488Y013181D01*
X002381Y013288D01*
X002488Y013501D02*
X002701Y013501D01*
X002808Y013395D01*
X002808Y013288D01*
X002488Y013501D02*
X002381Y013608D01*
X002381Y013715D01*
X002488Y013822D01*
X002701Y013822D01*
X002808Y013715D01*
X003670Y013608D02*
X003777Y013608D01*
X003777Y013181D01*
X003883Y013181D02*
X003670Y013181D01*
X004100Y013288D02*
X004100Y013501D01*
X004206Y013608D01*
X004527Y013608D01*
X004744Y013501D02*
X004851Y013608D01*
X005064Y013608D01*
X005171Y013501D01*
X005171Y013395D01*
X004744Y013395D01*
X004744Y013501D02*
X004744Y013288D01*
X004851Y013181D01*
X005064Y013181D01*
X005389Y013288D02*
X005495Y013181D01*
X005816Y013181D01*
X005389Y013288D02*
X005389Y013608D01*
X004527Y013822D02*
X004527Y013181D01*
X004206Y013181D01*
X004100Y013288D01*
X004314Y012928D02*
X004314Y012822D01*
X006355Y012608D02*
X006355Y012181D01*
X006782Y012181D02*
X006782Y012501D01*
X006676Y012608D01*
X006355Y012608D01*
X007644Y012715D02*
X007751Y012822D01*
X007965Y012822D01*
X008071Y012715D01*
X008071Y012608D01*
X007644Y012181D01*
X008071Y012181D01*
X007951Y011651D02*
X010251Y011651D01*
X010251Y003651D01*
X009501Y003651D01*
X009499Y003690D01*
X009493Y003729D01*
X009484Y003767D01*
X009471Y003804D01*
X009454Y003840D01*
X009434Y003873D01*
X009410Y003905D01*
X009384Y003934D01*
X009355Y003960D01*
X009323Y003984D01*
X009290Y004004D01*
X009254Y004021D01*
X009217Y004034D01*
X009179Y004043D01*
X009140Y004049D01*
X009101Y004051D01*
X009062Y004049D01*
X009023Y004043D01*
X008985Y004034D01*
X008948Y004021D01*
X008912Y004004D01*
X008879Y003984D01*
X008847Y003960D01*
X008818Y003934D01*
X008792Y003905D01*
X008768Y003873D01*
X008748Y003840D01*
X008731Y003804D01*
X008718Y003767D01*
X008709Y003729D01*
X008703Y003690D01*
X008701Y003651D01*
X007951Y003651D01*
X007951Y011651D01*
X004351Y010401D02*
X004351Y009901D01*
X004101Y009651D01*
X002601Y009651D01*
X002351Y009401D01*
X002351Y008901D01*
X002601Y008651D01*
X004101Y008651D01*
X004351Y008401D01*
X004351Y007901D01*
X004101Y007651D01*
X002601Y007651D01*
X002351Y007401D01*
X002351Y006901D01*
X002601Y006651D01*
X002351Y006401D01*
X002351Y005901D01*
X002601Y005651D01*
X004101Y005651D01*
X004351Y005901D01*
X004351Y006401D01*
X004101Y006651D01*
X002601Y006651D01*
X004101Y006651D02*
X004351Y006901D01*
X004351Y007401D01*
X004101Y007651D01*
X002601Y007651D02*
X002351Y007901D01*
X002351Y008401D01*
X002601Y008651D01*
X004101Y008651D02*
X004351Y008901D01*
X004351Y009401D01*
X004101Y009651D01*
X002601Y009651D02*
X002351Y009901D01*
X002351Y010401D01*
X002601Y010651D01*
X004101Y010651D01*
X004351Y010401D01*
X009256Y013501D02*
X009256Y013608D01*
X009362Y013608D01*
X009362Y013501D01*
X009256Y013501D01*
X003777Y013822D02*
X003777Y013928D01*
X011601Y009801D02*
X011601Y007501D01*
X018601Y007501D01*
X018601Y008251D01*
X018562Y008253D01*
X018523Y008259D01*
X018485Y008268D01*
X018448Y008281D01*
X018412Y008298D01*
X018379Y008318D01*
X018347Y008342D01*
X018318Y008368D01*
X018292Y008397D01*
X018268Y008429D01*
X018248Y008462D01*
X018231Y008498D01*
X018218Y008535D01*
X018209Y008573D01*
X018203Y008612D01*
X018201Y008651D01*
X018203Y008690D01*
X018209Y008729D01*
X018218Y008767D01*
X018231Y008804D01*
X018248Y008840D01*
X018268Y008873D01*
X018292Y008905D01*
X018318Y008934D01*
X018347Y008960D01*
X018379Y008984D01*
X018412Y009004D01*
X018448Y009021D01*
X018485Y009034D01*
X018523Y009043D01*
X018562Y009049D01*
X018601Y009051D01*
X018601Y009801D01*
X011601Y009801D01*
X016022Y012968D02*
X016129Y012968D01*
X016235Y013074D01*
X016235Y013608D01*
X014251Y002501D02*
X014501Y002251D01*
X014251Y002001D02*
X014001Y002251D01*
X014251Y002501D01*
X015101Y000701D02*
X015153Y000703D01*
X015205Y000709D01*
X015256Y000718D01*
X015306Y000732D01*
X015356Y000749D01*
X015404Y000770D01*
X015450Y000794D01*
X015494Y000822D01*
X015536Y000852D01*
X015575Y000886D01*
X015612Y000923D01*
X015647Y000962D01*
X015678Y001004D01*
X015706Y001048D01*
X015101Y000701D02*
X015049Y000703D01*
X014997Y000709D01*
X014946Y000718D01*
X014896Y000732D01*
X014846Y000749D01*
X014798Y000770D01*
X014752Y000794D01*
X014708Y000822D01*
X014666Y000852D01*
X014627Y000886D01*
X014590Y000923D01*
X014555Y000962D01*
X014524Y001004D01*
X014496Y001048D01*
X014496Y001754D02*
X014524Y001798D01*
X014555Y001840D01*
X014590Y001879D01*
X014627Y001916D01*
X014666Y001950D01*
X014708Y001980D01*
X014752Y002008D01*
X014798Y002032D01*
X014846Y002053D01*
X014896Y002070D01*
X014946Y002084D01*
X014997Y002093D01*
X015049Y002099D01*
X015101Y002101D01*
X015153Y002099D01*
X015205Y002093D01*
X015256Y002084D01*
X015306Y002070D01*
X015356Y002053D01*
X015404Y002032D01*
X015450Y002008D01*
X015494Y001980D01*
X015536Y001950D01*
X015575Y001916D01*
X015612Y001879D01*
X015647Y001840D01*
X015678Y001798D01*
X015706Y001754D01*
X014051Y001401D02*
X014053Y001466D01*
X014059Y001530D01*
X014069Y001594D01*
X014083Y001657D01*
X014100Y001719D01*
X014122Y001780D01*
X014147Y001840D01*
X014176Y001898D01*
X014208Y001954D01*
X014244Y002008D01*
X014283Y002059D01*
X014325Y002108D01*
X014370Y002155D01*
X014418Y002198D01*
X014468Y002239D01*
X014521Y002276D01*
X014576Y002310D01*
X014633Y002341D01*
X014692Y002368D01*
X014752Y002391D01*
X014814Y002411D01*
X014876Y002427D01*
X014940Y002439D01*
X015004Y002447D01*
X015069Y002451D01*
X015133Y002451D01*
X015198Y002447D01*
X015262Y002439D01*
X015326Y002427D01*
X015388Y002411D01*
X015450Y002391D01*
X015510Y002368D01*
X015569Y002341D01*
X015626Y002310D01*
X015681Y002276D01*
X015734Y002239D01*
X015784Y002198D01*
X015832Y002155D01*
X015877Y002108D01*
X015919Y002059D01*
X015958Y002008D01*
X015994Y001954D01*
X016026Y001898D01*
X016055Y001840D01*
X016080Y001780D01*
X016102Y001719D01*
X016119Y001657D01*
X016133Y001594D01*
X016143Y001530D01*
X016149Y001466D01*
X016151Y001401D01*
X016149Y001336D01*
X016143Y001272D01*
X016133Y001208D01*
X016119Y001145D01*
X016102Y001083D01*
X016080Y001022D01*
X016055Y000962D01*
X016026Y000904D01*
X015994Y000848D01*
X015958Y000794D01*
X015919Y000743D01*
X015877Y000694D01*
X015832Y000647D01*
X015784Y000604D01*
X015734Y000563D01*
X015681Y000526D01*
X015626Y000492D01*
X015569Y000461D01*
X015510Y000434D01*
X015450Y000411D01*
X015388Y000391D01*
X015326Y000375D01*
X015262Y000363D01*
X015198Y000355D01*
X015133Y000351D01*
X015069Y000351D01*
X015004Y000355D01*
X014940Y000363D01*
X014876Y000375D01*
X014814Y000391D01*
X014752Y000411D01*
X014692Y000434D01*
X014633Y000461D01*
X014576Y000492D01*
X014521Y000526D01*
X014468Y000563D01*
X014418Y000604D01*
X014370Y000647D01*
X014325Y000694D01*
X014283Y000743D01*
X014244Y000794D01*
X014208Y000848D01*
X014176Y000904D01*
X014147Y000962D01*
X014122Y001022D01*
X014100Y001083D01*
X014083Y001145D01*
X014069Y001208D01*
X014059Y001272D01*
X014053Y001336D01*
X014051Y001401D01*
D12*
X005848Y005998D02*
X005772Y005921D01*
X005618Y005921D01*
X005541Y005998D01*
X005541Y006305D01*
X005618Y006382D01*
X005772Y006382D01*
X005848Y006305D01*
X005388Y006305D02*
X005311Y006382D01*
X005158Y006382D01*
X005081Y006305D01*
X005081Y005998D01*
X005158Y005921D01*
X005311Y005921D01*
X005388Y005998D01*
X004928Y006075D02*
X004928Y006382D01*
X004621Y006382D02*
X004621Y006075D01*
X004774Y005921D01*
X004928Y006075D01*
X004851Y006921D02*
X004697Y006921D01*
X004621Y006998D01*
X004697Y007151D02*
X004851Y007151D01*
X004928Y007075D01*
X004928Y006998D01*
X004851Y006921D01*
X005081Y006921D02*
X005311Y006921D01*
X005388Y006998D01*
X005388Y007305D01*
X005311Y007382D01*
X005081Y007382D01*
X005081Y006921D01*
X004697Y007151D02*
X004621Y007228D01*
X004621Y007305D01*
X004697Y007382D01*
X004851Y007382D01*
X004928Y007305D01*
X005541Y007382D02*
X005695Y007382D01*
X005618Y007382D02*
X005618Y006921D01*
X005541Y006921D02*
X005695Y006921D01*
X005311Y007921D02*
X005388Y007998D01*
X005311Y007921D02*
X005158Y007921D01*
X005081Y007998D01*
X005081Y008305D01*
X005158Y008382D01*
X005311Y008382D01*
X005388Y008305D01*
X004928Y008305D02*
X004851Y008382D01*
X004697Y008382D01*
X004621Y008305D01*
X004621Y008228D01*
X004697Y008151D01*
X004851Y008151D01*
X004928Y008075D01*
X004928Y007998D01*
X004851Y007921D01*
X004697Y007921D01*
X004621Y007998D01*
X004697Y008921D02*
X004621Y008998D01*
X004697Y008921D02*
X004851Y008921D01*
X004928Y008998D01*
X004928Y009075D01*
X004851Y009151D01*
X004697Y009151D01*
X004621Y009228D01*
X004621Y009305D01*
X004697Y009382D01*
X004851Y009382D01*
X004928Y009305D01*
X005081Y009382D02*
X005081Y008921D01*
X005388Y008921D01*
X005311Y009921D02*
X005388Y009998D01*
X005388Y010305D01*
X005311Y010382D01*
X005158Y010382D01*
X005081Y010305D01*
X005081Y009998D01*
X005158Y009921D01*
X005311Y009921D01*
X004928Y009921D02*
X004621Y009921D01*
X004621Y010382D01*
X002098Y009305D02*
X002022Y009382D01*
X001868Y009382D01*
X001791Y009305D01*
X001791Y008998D01*
X001868Y008921D01*
X002022Y008921D01*
X002098Y008998D01*
X001638Y009382D02*
X001331Y008921D01*
X001178Y008921D02*
X001178Y009382D01*
X000871Y009382D02*
X001178Y008921D01*
X000871Y008921D02*
X000871Y009382D01*
X000851Y009921D02*
X000697Y009921D01*
X000621Y009998D01*
X000774Y010151D02*
X000851Y010151D01*
X000928Y010075D01*
X000928Y009998D01*
X000851Y009921D01*
X001081Y009998D02*
X001081Y010075D01*
X001158Y010151D01*
X001311Y010151D01*
X001388Y010075D01*
X001388Y009998D01*
X001311Y009921D01*
X001158Y009921D01*
X001081Y009998D01*
X001158Y010151D02*
X001081Y010228D01*
X001081Y010305D01*
X001158Y010382D01*
X001311Y010382D01*
X001388Y010305D01*
X001388Y010228D01*
X001311Y010151D01*
X001541Y010075D02*
X001848Y010382D01*
X001541Y010382D02*
X001541Y009921D01*
X001618Y010151D02*
X001848Y009921D01*
X000928Y010228D02*
X000928Y010305D01*
X000851Y010382D01*
X000697Y010382D01*
X000621Y010305D01*
X000851Y010151D02*
X000928Y010228D01*
X001121Y008382D02*
X001121Y007921D01*
X001428Y007921D01*
X001581Y007921D02*
X001581Y008382D01*
X001811Y008382D01*
X001888Y008305D01*
X001888Y008151D01*
X001811Y008075D01*
X001581Y008075D01*
X001735Y008075D02*
X001888Y007921D01*
X001772Y007382D02*
X001618Y007382D01*
X001541Y007305D01*
X001541Y006998D01*
X001618Y006921D01*
X001772Y006921D01*
X001848Y006998D01*
X001848Y007305D02*
X001772Y007382D01*
X001388Y007305D02*
X001311Y007382D01*
X001158Y007382D01*
X001081Y007305D01*
X001081Y007228D01*
X001158Y007151D01*
X001311Y007151D01*
X001388Y007075D01*
X001388Y006998D01*
X001311Y006921D01*
X001158Y006921D01*
X001081Y006998D01*
X000928Y006921D02*
X000621Y006921D01*
X000621Y007382D01*
X000697Y006382D02*
X000621Y006305D01*
X000621Y005998D01*
X000697Y005921D01*
X000851Y005921D01*
X000928Y005998D01*
X000928Y006151D01*
X000774Y006151D01*
X000928Y006305D02*
X000851Y006382D01*
X000697Y006382D01*
X001081Y006382D02*
X001388Y005921D01*
X001388Y006382D01*
X001541Y006382D02*
X001772Y006382D01*
X001848Y006305D01*
X001848Y005998D01*
X001772Y005921D01*
X001541Y005921D01*
X001541Y006382D01*
X001081Y006382D02*
X001081Y005921D01*
X024121Y006075D02*
X024274Y005921D01*
X024428Y006075D01*
X024428Y006382D01*
X024581Y006305D02*
X024581Y005998D01*
X024658Y005921D01*
X024811Y005921D01*
X024888Y005998D01*
X025041Y005998D02*
X025118Y005921D01*
X025272Y005921D01*
X025348Y005998D01*
X025041Y005998D02*
X025041Y006305D01*
X025118Y006382D01*
X025272Y006382D01*
X025348Y006305D01*
X024888Y006305D02*
X024811Y006382D01*
X024658Y006382D01*
X024581Y006305D01*
X024121Y006382D02*
X024121Y006075D01*
X024197Y006921D02*
X024121Y006998D01*
X024197Y006921D02*
X024351Y006921D01*
X024428Y006998D01*
X024428Y007075D01*
X024351Y007151D01*
X024197Y007151D01*
X024121Y007228D01*
X024121Y007305D01*
X024197Y007382D01*
X024351Y007382D01*
X024428Y007305D01*
X024581Y007382D02*
X024811Y007382D01*
X024888Y007305D01*
X024888Y006998D01*
X024811Y006921D01*
X024581Y006921D01*
X024581Y007382D01*
X025041Y007305D02*
X025041Y006998D01*
X025118Y006921D01*
X025272Y006921D01*
X025348Y006998D01*
X025348Y007305D01*
X025272Y007382D01*
X025118Y007382D01*
X025041Y007305D01*
X025158Y007921D02*
X025311Y007921D01*
X025388Y007998D01*
X025158Y007921D02*
X025081Y007998D01*
X025081Y008305D01*
X025158Y008382D01*
X025311Y008382D01*
X025388Y008305D01*
X024928Y008305D02*
X024851Y008382D01*
X024697Y008382D01*
X024621Y008305D01*
X024621Y008228D01*
X024697Y008151D01*
X024851Y008151D01*
X024928Y008075D01*
X024928Y007998D01*
X024851Y007921D01*
X024697Y007921D01*
X024621Y007998D01*
X024697Y008921D02*
X024621Y008998D01*
X024697Y008921D02*
X024851Y008921D01*
X024928Y008998D01*
X024928Y009075D01*
X024851Y009151D01*
X024697Y009151D01*
X024621Y009228D01*
X024621Y009305D01*
X024697Y009382D01*
X024851Y009382D01*
X024928Y009305D01*
X025081Y009382D02*
X025081Y008921D01*
X025388Y008921D01*
X025235Y009921D02*
X025081Y009921D01*
X025158Y009921D02*
X025158Y010382D01*
X025081Y010382D02*
X025235Y010382D01*
X024621Y010382D02*
X024621Y009921D01*
X024928Y009921D01*
X028121Y009998D02*
X028197Y009921D01*
X028351Y009921D01*
X028428Y009998D01*
X028428Y010075D01*
X028351Y010151D01*
X028274Y010151D01*
X028351Y010151D02*
X028428Y010228D01*
X028428Y010305D01*
X028351Y010382D01*
X028197Y010382D01*
X028121Y010305D01*
X028581Y010305D02*
X028581Y010228D01*
X028658Y010151D01*
X028811Y010151D01*
X028888Y010075D01*
X028888Y009998D01*
X028811Y009921D01*
X028658Y009921D01*
X028581Y009998D01*
X028581Y010075D01*
X028658Y010151D01*
X028811Y010151D02*
X028888Y010228D01*
X028888Y010305D01*
X028811Y010382D01*
X028658Y010382D01*
X028581Y010305D01*
X029041Y010382D02*
X029041Y009921D01*
X029041Y010075D02*
X029348Y010382D01*
X029118Y010151D02*
X029348Y009921D01*
X029272Y009382D02*
X029118Y009382D01*
X029041Y009305D01*
X029041Y008998D01*
X029118Y008921D01*
X029272Y008921D01*
X029348Y008998D01*
X029348Y009305D02*
X029272Y009382D01*
X028888Y009382D02*
X028581Y008921D01*
X028428Y008921D02*
X028428Y009382D01*
X028121Y009382D02*
X028428Y008921D01*
X028121Y008921D02*
X028121Y009382D01*
X028121Y008382D02*
X028121Y007921D01*
X028428Y007921D01*
X028581Y007921D02*
X028581Y008382D01*
X028811Y008382D01*
X028888Y008305D01*
X028888Y008151D01*
X028811Y008075D01*
X028581Y008075D01*
X028735Y008075D02*
X028888Y007921D01*
X028811Y007382D02*
X028658Y007382D01*
X028581Y007305D01*
X028581Y007228D01*
X028658Y007151D01*
X028811Y007151D01*
X028888Y007075D01*
X028888Y006998D01*
X028811Y006921D01*
X028658Y006921D01*
X028581Y006998D01*
X028428Y006921D02*
X028121Y006921D01*
X028121Y007382D01*
X028811Y007382D02*
X028888Y007305D01*
X029041Y007305D02*
X029041Y006998D01*
X029118Y006921D01*
X029272Y006921D01*
X029348Y006998D01*
X029348Y007305D02*
X029272Y007382D01*
X029118Y007382D01*
X029041Y007305D01*
X029041Y006382D02*
X029272Y006382D01*
X029348Y006305D01*
X029348Y005998D01*
X029272Y005921D01*
X029041Y005921D01*
X029041Y006382D01*
X028888Y006382D02*
X028888Y005921D01*
X028581Y006382D01*
X028581Y005921D01*
X028428Y005998D02*
X028428Y006151D01*
X028274Y006151D01*
X028121Y005998D02*
X028197Y005921D01*
X028351Y005921D01*
X028428Y005998D01*
X028121Y005998D02*
X028121Y006305D01*
X028197Y006382D01*
X028351Y006382D01*
X028428Y006305D01*
D13*
X027851Y002651D02*
X024851Y002651D01*
X024851Y001901D01*
X027851Y001901D01*
X027851Y000151D01*
X024851Y000151D01*
X024851Y001901D01*
X027851Y001901D02*
X027851Y002651D01*
X020351Y002651D02*
X020351Y001901D01*
X017351Y001901D01*
X017351Y002651D01*
X020351Y002651D01*
X020351Y001901D02*
X020351Y000151D01*
X017351Y000151D01*
X017351Y001901D01*
X014151Y001401D02*
X014153Y001462D01*
X014159Y001524D01*
X014169Y001584D01*
X014183Y001644D01*
X014200Y001703D01*
X014222Y001761D01*
X014247Y001817D01*
X014276Y001872D01*
X014308Y001924D01*
X014343Y001974D01*
X014382Y002022D01*
X014424Y002067D01*
X014468Y002110D01*
X014516Y002149D01*
X014565Y002186D01*
X014617Y002219D01*
X014671Y002248D01*
X014727Y002274D01*
X014784Y002297D01*
X014843Y002315D01*
X014902Y002330D01*
X014963Y002341D01*
X015024Y002348D01*
X015086Y002351D01*
X015147Y002350D01*
X015208Y002345D01*
X015269Y002336D01*
X015329Y002323D01*
X015389Y002306D01*
X015447Y002286D01*
X015503Y002262D01*
X015558Y002234D01*
X015611Y002202D01*
X015662Y002168D01*
X015710Y002130D01*
X015756Y002089D01*
X015799Y002045D01*
X015840Y001998D01*
X015877Y001949D01*
X015911Y001898D01*
X015941Y001845D01*
X015968Y001789D01*
X015991Y001732D01*
X016011Y001674D01*
X016027Y001615D01*
X016039Y001554D01*
X016047Y001493D01*
X016051Y001432D01*
X016051Y001370D01*
X016047Y001309D01*
X016039Y001248D01*
X016027Y001187D01*
X016011Y001128D01*
X015991Y001070D01*
X015968Y001013D01*
X015941Y000957D01*
X015911Y000904D01*
X015877Y000853D01*
X015840Y000804D01*
X015799Y000757D01*
X015756Y000713D01*
X015710Y000672D01*
X015662Y000634D01*
X015611Y000600D01*
X015558Y000568D01*
X015503Y000540D01*
X015447Y000516D01*
X015389Y000496D01*
X015329Y000479D01*
X015269Y000466D01*
X015208Y000457D01*
X015147Y000452D01*
X015086Y000451D01*
X015024Y000454D01*
X014963Y000461D01*
X014902Y000472D01*
X014843Y000487D01*
X014784Y000505D01*
X014727Y000528D01*
X014671Y000554D01*
X014617Y000583D01*
X014565Y000616D01*
X014516Y000653D01*
X014468Y000692D01*
X014424Y000735D01*
X014382Y000780D01*
X014343Y000828D01*
X014308Y000878D01*
X014276Y000930D01*
X014247Y000985D01*
X014222Y001041D01*
X014200Y001099D01*
X014183Y001158D01*
X014169Y001218D01*
X014159Y001278D01*
X014153Y001340D01*
X014151Y001401D01*
X012851Y001901D02*
X009851Y001901D01*
X009851Y002651D01*
X012851Y002651D01*
X012851Y001901D01*
X012851Y000151D01*
X009851Y000151D01*
X009851Y001901D01*
X005351Y001901D02*
X005351Y000151D01*
X002351Y000151D01*
X002351Y001901D01*
X005351Y001901D01*
X005351Y002651D01*
X002351Y002651D01*
X002351Y001901D01*
X021091Y012091D02*
X021271Y011901D01*
X021511Y012071D01*
X021611Y012011D01*
X021811Y012461D01*
X022131Y012461D02*
X022321Y012011D01*
X022421Y012071D01*
X022661Y011901D01*
X022851Y012091D01*
X022681Y012331D01*
X022781Y012601D02*
X023081Y012651D01*
X023081Y012911D01*
X022781Y012971D01*
X022671Y013221D02*
X022851Y013481D01*
X022661Y013661D01*
X022401Y013481D01*
X022151Y013581D02*
X022101Y013901D01*
X021831Y013901D01*
X021781Y013581D01*
X021531Y013481D02*
X021271Y013661D01*
X021081Y013481D01*
X021261Y013221D01*
X021151Y012971D02*
X020851Y012911D01*
X020851Y012651D01*
X021151Y012601D01*
X021251Y012331D02*
X021091Y012091D01*
X021255Y012334D02*
X021227Y012384D01*
X021203Y012436D01*
X021182Y012489D01*
X021165Y012544D01*
X021152Y012600D01*
X021534Y013484D02*
X021579Y013509D01*
X021626Y013532D01*
X021674Y013551D01*
X021723Y013568D01*
X021773Y013581D01*
X021811Y012471D02*
X021778Y012489D01*
X021748Y012510D01*
X021719Y012534D01*
X021693Y012561D01*
X021671Y012590D01*
X021651Y012622D01*
X021634Y012655D01*
X021621Y012690D01*
X021612Y012726D01*
X021606Y012763D01*
X021604Y012800D01*
X021606Y012837D01*
X021611Y012874D01*
X021621Y012910D01*
X021633Y012945D01*
X021650Y012979D01*
X021669Y013010D01*
X021692Y013040D01*
X021718Y013067D01*
X021746Y013091D01*
X021777Y013112D01*
X021809Y013130D01*
X021843Y013145D01*
X021879Y013156D01*
X021915Y013164D01*
X021952Y013168D01*
X021990Y013168D01*
X022027Y013164D01*
X022063Y013156D01*
X022099Y013145D01*
X022133Y013130D01*
X022165Y013112D01*
X022196Y013091D01*
X022224Y013067D01*
X022250Y013040D01*
X022273Y013010D01*
X022292Y012979D01*
X022309Y012945D01*
X022321Y012910D01*
X022331Y012874D01*
X022336Y012837D01*
X022338Y012800D01*
X022336Y012763D01*
X022330Y012726D01*
X022321Y012690D01*
X022308Y012655D01*
X022291Y012622D01*
X022271Y012590D01*
X022249Y012561D01*
X022223Y012534D01*
X022194Y012510D01*
X022164Y012489D01*
X022131Y012471D01*
X022681Y012331D02*
X022704Y012372D01*
X022725Y012415D01*
X022743Y012460D01*
X022758Y012505D01*
X022771Y012551D01*
X022781Y012598D01*
X022780Y012972D02*
X022765Y013024D01*
X022746Y013075D01*
X022724Y013125D01*
X022699Y013173D01*
X022670Y013220D01*
X022405Y013483D02*
X022358Y013510D01*
X022309Y013533D01*
X022259Y013553D01*
X022208Y013570D01*
X022156Y013584D01*
X021262Y013216D02*
X021235Y013170D01*
X021211Y013122D01*
X021190Y013073D01*
X021172Y013022D01*
X021158Y012971D01*
D14*
X014654Y004351D02*
X014548Y004351D01*
X015055Y003963D02*
X015028Y003907D01*
X014997Y003853D01*
X014963Y003801D01*
X014926Y003751D01*
X013276Y003751D01*
X013548Y004351D02*
X013654Y004351D01*
X013151Y003954D02*
X013178Y003900D01*
X013208Y003849D01*
X013241Y003799D01*
X013276Y003751D01*
X013151Y004848D02*
X013180Y004905D01*
X013213Y004961D01*
X013248Y005014D01*
X013288Y005065D01*
X013330Y005113D01*
X013375Y005159D01*
X013422Y005202D01*
X013472Y005242D01*
X013525Y005279D01*
X013580Y005312D01*
X013636Y005343D01*
X013695Y005369D01*
X013755Y005392D01*
X013816Y005412D01*
X013878Y005427D01*
X013941Y005439D01*
X014005Y005447D01*
X014069Y005451D01*
X014133Y005451D01*
X014197Y005447D01*
X014261Y005439D01*
X014324Y005427D01*
X014386Y005412D01*
X014447Y005392D01*
X014507Y005369D01*
X014566Y005343D01*
X014622Y005312D01*
X014677Y005279D01*
X014730Y005242D01*
X014780Y005202D01*
X014827Y005159D01*
X014872Y005113D01*
X014914Y005065D01*
X014954Y005014D01*
X014989Y004961D01*
X015022Y004905D01*
X015051Y004848D01*
X016266Y003011D02*
X016266Y001791D01*
X016935Y001791D01*
X016935Y003011D01*
X016266Y003011D01*
D15*
X014351Y002901D02*
X014351Y002401D01*
X026351Y004151D02*
X026351Y004651D01*
X025601Y009901D02*
X025601Y010401D01*
X002101Y010401D02*
X002101Y009901D01*
D16*
X002851Y008151D03*
X026351Y008151D03*
D17*
X026253Y005056D02*
X026253Y004906D01*
X026203Y004906D02*
X026303Y004906D01*
X026203Y005006D02*
X026253Y005056D01*
X026156Y005031D02*
X026131Y005056D01*
X026081Y005056D01*
X026056Y005031D01*
X026056Y004931D01*
X026081Y004906D01*
X026131Y004906D01*
X026156Y004931D01*
X014303Y003281D02*
X014303Y003256D01*
X014203Y003156D01*
X014303Y003156D01*
X014303Y003281D02*
X014278Y003306D01*
X014228Y003306D01*
X014203Y003281D01*
X014156Y003281D02*
X014131Y003306D01*
X014081Y003306D01*
X014056Y003281D01*
X014056Y003181D01*
X014081Y003156D01*
X014131Y003156D01*
X014156Y003181D01*
M02*
