G75*
G70*
%OFA0B0*%
%FSLAX24Y24*%
%IPPOS*%
%LPD*%
%AMOC8*
5,1,8,0,0,1.08239X$1,22.5*
%
%ADD10C,0.0000*%
%ADD11C,0.0060*%
%ADD12C,0.0040*%
%ADD13C,0.0200*%
%ADD14C,0.0100*%
%ADD15C,0.0050*%
%ADD16C,0.0080*%
%ADD17R,0.0200X0.0200*%
%ADD18C,0.0010*%
D10*
X000101Y000151D02*
X000101Y014147D01*
X001056Y012651D02*
X001058Y012685D01*
X001064Y012719D01*
X001074Y012752D01*
X001087Y012783D01*
X001105Y012813D01*
X001125Y012841D01*
X001149Y012866D01*
X001175Y012888D01*
X001203Y012906D01*
X001234Y012922D01*
X001266Y012934D01*
X001300Y012942D01*
X001334Y012946D01*
X001368Y012946D01*
X001402Y012942D01*
X001436Y012934D01*
X001468Y012922D01*
X001498Y012906D01*
X001527Y012888D01*
X001553Y012866D01*
X001577Y012841D01*
X001597Y012813D01*
X001615Y012783D01*
X001628Y012752D01*
X001638Y012719D01*
X001644Y012685D01*
X001646Y012651D01*
X001644Y012617D01*
X001638Y012583D01*
X001628Y012550D01*
X001615Y012519D01*
X001597Y012489D01*
X001577Y012461D01*
X001553Y012436D01*
X001527Y012414D01*
X001499Y012396D01*
X001468Y012380D01*
X001436Y012368D01*
X001402Y012360D01*
X001368Y012356D01*
X001334Y012356D01*
X001300Y012360D01*
X001266Y012368D01*
X001234Y012380D01*
X001203Y012396D01*
X001175Y012414D01*
X001149Y012436D01*
X001125Y012461D01*
X001105Y012489D01*
X001087Y012519D01*
X001074Y012550D01*
X001064Y012583D01*
X001058Y012617D01*
X001056Y012651D01*
X001056Y002651D02*
X001058Y002685D01*
X001064Y002719D01*
X001074Y002752D01*
X001087Y002783D01*
X001105Y002813D01*
X001125Y002841D01*
X001149Y002866D01*
X001175Y002888D01*
X001203Y002906D01*
X001234Y002922D01*
X001266Y002934D01*
X001300Y002942D01*
X001334Y002946D01*
X001368Y002946D01*
X001402Y002942D01*
X001436Y002934D01*
X001468Y002922D01*
X001498Y002906D01*
X001527Y002888D01*
X001553Y002866D01*
X001577Y002841D01*
X001597Y002813D01*
X001615Y002783D01*
X001628Y002752D01*
X001638Y002719D01*
X001644Y002685D01*
X001646Y002651D01*
X001644Y002617D01*
X001638Y002583D01*
X001628Y002550D01*
X001615Y002519D01*
X001597Y002489D01*
X001577Y002461D01*
X001553Y002436D01*
X001527Y002414D01*
X001499Y002396D01*
X001468Y002380D01*
X001436Y002368D01*
X001402Y002360D01*
X001368Y002356D01*
X001334Y002356D01*
X001300Y002360D01*
X001266Y002368D01*
X001234Y002380D01*
X001203Y002396D01*
X001175Y002414D01*
X001149Y002436D01*
X001125Y002461D01*
X001105Y002489D01*
X001087Y002519D01*
X001074Y002550D01*
X001064Y002583D01*
X001058Y002617D01*
X001056Y002651D01*
X000101Y000151D02*
X030096Y000151D01*
X030096Y014147D01*
X028556Y012651D02*
X028558Y012685D01*
X028564Y012719D01*
X028574Y012752D01*
X028587Y012783D01*
X028605Y012813D01*
X028625Y012841D01*
X028649Y012866D01*
X028675Y012888D01*
X028703Y012906D01*
X028734Y012922D01*
X028766Y012934D01*
X028800Y012942D01*
X028834Y012946D01*
X028868Y012946D01*
X028902Y012942D01*
X028936Y012934D01*
X028968Y012922D01*
X028998Y012906D01*
X029027Y012888D01*
X029053Y012866D01*
X029077Y012841D01*
X029097Y012813D01*
X029115Y012783D01*
X029128Y012752D01*
X029138Y012719D01*
X029144Y012685D01*
X029146Y012651D01*
X029144Y012617D01*
X029138Y012583D01*
X029128Y012550D01*
X029115Y012519D01*
X029097Y012489D01*
X029077Y012461D01*
X029053Y012436D01*
X029027Y012414D01*
X028999Y012396D01*
X028968Y012380D01*
X028936Y012368D01*
X028902Y012360D01*
X028868Y012356D01*
X028834Y012356D01*
X028800Y012360D01*
X028766Y012368D01*
X028734Y012380D01*
X028703Y012396D01*
X028675Y012414D01*
X028649Y012436D01*
X028625Y012461D01*
X028605Y012489D01*
X028587Y012519D01*
X028574Y012550D01*
X028564Y012583D01*
X028558Y012617D01*
X028556Y012651D01*
X028556Y002651D02*
X028558Y002685D01*
X028564Y002719D01*
X028574Y002752D01*
X028587Y002783D01*
X028605Y002813D01*
X028625Y002841D01*
X028649Y002866D01*
X028675Y002888D01*
X028703Y002906D01*
X028734Y002922D01*
X028766Y002934D01*
X028800Y002942D01*
X028834Y002946D01*
X028868Y002946D01*
X028902Y002942D01*
X028936Y002934D01*
X028968Y002922D01*
X028998Y002906D01*
X029027Y002888D01*
X029053Y002866D01*
X029077Y002841D01*
X029097Y002813D01*
X029115Y002783D01*
X029128Y002752D01*
X029138Y002719D01*
X029144Y002685D01*
X029146Y002651D01*
X029144Y002617D01*
X029138Y002583D01*
X029128Y002550D01*
X029115Y002519D01*
X029097Y002489D01*
X029077Y002461D01*
X029053Y002436D01*
X029027Y002414D01*
X028999Y002396D01*
X028968Y002380D01*
X028936Y002368D01*
X028902Y002360D01*
X028868Y002356D01*
X028834Y002356D01*
X028800Y002360D01*
X028766Y002368D01*
X028734Y002380D01*
X028703Y002396D01*
X028675Y002414D01*
X028649Y002436D01*
X028625Y002461D01*
X028605Y002489D01*
X028587Y002519D01*
X028574Y002550D01*
X028564Y002583D01*
X028558Y002617D01*
X028556Y002651D01*
D11*
X027161Y003398D02*
X027221Y003418D01*
X027280Y003442D01*
X027337Y003470D01*
X027392Y003501D01*
X027446Y003536D01*
X027497Y003573D01*
X027546Y003614D01*
X027592Y003658D01*
X027636Y003704D01*
X027677Y003753D01*
X027715Y003804D01*
X027749Y003857D01*
X027781Y003913D01*
X027808Y003970D01*
X027833Y004029D01*
X027853Y004089D01*
X027871Y004150D01*
X027884Y004212D01*
X027893Y004275D01*
X027899Y004338D01*
X027901Y004402D01*
X027899Y004466D01*
X027893Y004529D01*
X027884Y004592D01*
X027870Y004654D01*
X027853Y004715D01*
X027832Y004775D01*
X027808Y004834D01*
X027780Y004891D01*
X027748Y004947D01*
X027713Y005000D01*
X027676Y005051D01*
X026026Y005051D01*
X025963Y004501D02*
X025806Y004501D01*
X026738Y004501D02*
X026963Y004501D01*
X026026Y005051D02*
X025989Y005000D01*
X025954Y004947D01*
X025922Y004891D01*
X025894Y004834D01*
X025870Y004775D01*
X025849Y004715D01*
X025832Y004654D01*
X025818Y004592D01*
X025809Y004529D01*
X025803Y004466D01*
X025801Y004402D01*
X025803Y004338D01*
X025809Y004275D01*
X025818Y004212D01*
X025831Y004150D01*
X025849Y004089D01*
X025869Y004029D01*
X025894Y003970D01*
X025921Y003913D01*
X025953Y003857D01*
X025987Y003804D01*
X026025Y003753D01*
X026066Y003704D01*
X026110Y003658D01*
X026156Y003614D01*
X026205Y003573D01*
X026256Y003536D01*
X026310Y003501D01*
X026365Y003470D01*
X026422Y003442D01*
X026481Y003418D01*
X026541Y003398D01*
X027738Y004501D02*
X027896Y004501D01*
X027601Y005651D02*
X026101Y005651D01*
X025851Y005901D01*
X025851Y006401D01*
X026101Y006651D01*
X027601Y006651D01*
X027851Y006401D01*
X027851Y005901D01*
X027601Y005651D01*
X027601Y006651D02*
X027851Y006901D01*
X027851Y007401D01*
X027601Y007651D01*
X026101Y007651D01*
X025851Y007401D01*
X025851Y006901D01*
X026101Y006651D01*
X026101Y007651D02*
X025851Y007901D01*
X025851Y008401D01*
X026101Y008651D01*
X027601Y008651D01*
X027851Y008401D01*
X027851Y007901D01*
X027601Y007651D01*
X027601Y008651D02*
X027851Y008901D01*
X027851Y009401D01*
X027601Y009651D01*
X026101Y009651D01*
X025851Y009401D01*
X025851Y008901D01*
X026101Y008651D01*
X026101Y009651D02*
X025851Y009901D01*
X025851Y010401D01*
X026101Y010651D01*
X027601Y010651D01*
X027851Y010401D01*
X027851Y009901D01*
X027601Y009651D01*
X027675Y011181D02*
X027568Y011288D01*
X027568Y011501D01*
X027675Y011608D01*
X027995Y011608D01*
X027995Y011822D02*
X027995Y011181D01*
X027675Y011181D01*
X027351Y011181D02*
X027030Y011181D01*
X026924Y011288D01*
X027030Y011395D01*
X027351Y011395D01*
X027351Y011501D02*
X027351Y011181D01*
X027351Y011501D02*
X027244Y011608D01*
X027030Y011608D01*
X026706Y011501D02*
X026706Y011395D01*
X026279Y011395D01*
X026279Y011501D02*
X026279Y011288D01*
X026386Y011181D01*
X026599Y011181D01*
X026706Y011501D02*
X026599Y011608D01*
X026386Y011608D01*
X026279Y011501D01*
X026063Y011181D02*
X025850Y011181D01*
X025956Y011181D02*
X025956Y011822D01*
X025850Y011822D01*
X024987Y011501D02*
X024987Y011288D01*
X024881Y011181D01*
X024667Y011181D01*
X024560Y011288D01*
X024560Y011501D01*
X024667Y011608D01*
X024881Y011608D01*
X024987Y011501D01*
X024344Y011608D02*
X024131Y011608D01*
X024238Y011715D02*
X024238Y011288D01*
X024344Y011181D01*
X022251Y011151D02*
X021501Y011151D01*
X021499Y011112D01*
X021493Y011073D01*
X021484Y011035D01*
X021471Y010998D01*
X021454Y010962D01*
X021434Y010929D01*
X021410Y010897D01*
X021384Y010868D01*
X021355Y010842D01*
X021323Y010818D01*
X021290Y010798D01*
X021254Y010781D01*
X021217Y010768D01*
X021179Y010759D01*
X021140Y010753D01*
X021101Y010751D01*
X021062Y010753D01*
X021023Y010759D01*
X020985Y010768D01*
X020948Y010781D01*
X020912Y010798D01*
X020879Y010818D01*
X020847Y010842D01*
X020818Y010868D01*
X020792Y010897D01*
X020768Y010929D01*
X020748Y010962D01*
X020731Y010998D01*
X020718Y011035D01*
X020709Y011073D01*
X020703Y011112D01*
X020701Y011151D01*
X019951Y011151D01*
X019951Y003151D01*
X022251Y003151D01*
X022251Y011151D01*
X018601Y009801D02*
X018601Y007501D01*
X011601Y007501D01*
X011601Y008251D01*
X011640Y008253D01*
X011679Y008259D01*
X011717Y008268D01*
X011754Y008281D01*
X011790Y008298D01*
X011823Y008318D01*
X011855Y008342D01*
X011884Y008368D01*
X011910Y008397D01*
X011934Y008429D01*
X011954Y008462D01*
X011971Y008498D01*
X011984Y008535D01*
X011993Y008573D01*
X011999Y008612D01*
X012001Y008651D01*
X011999Y008690D01*
X011993Y008729D01*
X011984Y008767D01*
X011971Y008804D01*
X011954Y008840D01*
X011934Y008873D01*
X011910Y008905D01*
X011884Y008934D01*
X011855Y008960D01*
X011823Y008984D01*
X011790Y009004D01*
X011754Y009021D01*
X011717Y009034D01*
X011679Y009043D01*
X011640Y009049D01*
X011601Y009051D01*
X011601Y009801D01*
X018601Y009801D01*
X012071Y012181D02*
X011644Y012181D01*
X012071Y012608D01*
X012071Y012715D01*
X011965Y012822D01*
X011751Y012822D01*
X011644Y012715D01*
X011749Y013181D02*
X011749Y013501D01*
X011642Y013608D01*
X011322Y013608D01*
X011322Y013181D01*
X010998Y013181D02*
X010784Y013181D01*
X010678Y013288D01*
X010678Y013501D01*
X010784Y013608D01*
X010998Y013608D01*
X011105Y013501D01*
X011105Y013395D01*
X010678Y013395D01*
X010460Y013395D02*
X010460Y013288D01*
X010353Y013181D01*
X010140Y013181D01*
X010033Y013288D01*
X010140Y013501D02*
X010353Y013501D01*
X010460Y013395D01*
X010140Y013501D02*
X010033Y013608D01*
X010033Y013715D01*
X010140Y013822D01*
X010353Y013822D01*
X010460Y013715D01*
X009816Y013608D02*
X009816Y013074D01*
X009709Y012968D01*
X009602Y012968D01*
X009388Y012928D02*
X009388Y012822D01*
X009388Y012608D02*
X009281Y012608D01*
X009388Y012608D02*
X009388Y012181D01*
X009281Y012181D02*
X009495Y012181D01*
X009711Y012288D02*
X009818Y012181D01*
X010031Y012181D01*
X010138Y012288D01*
X010138Y012501D01*
X010031Y012608D01*
X009818Y012608D01*
X009711Y012501D01*
X009711Y012288D01*
X009064Y012288D02*
X008957Y012395D01*
X008743Y012395D01*
X008637Y012501D01*
X008743Y012608D01*
X009064Y012608D01*
X009064Y012288D02*
X008957Y012181D01*
X008637Y012181D01*
X008420Y012181D02*
X008207Y012181D01*
X008314Y012181D02*
X008314Y012608D01*
X008207Y012608D01*
X007989Y012608D02*
X007776Y012181D01*
X007562Y012608D01*
X007345Y012501D02*
X007345Y012395D01*
X006918Y012395D01*
X006918Y012501D02*
X006918Y012288D01*
X007025Y012181D01*
X007238Y012181D01*
X007345Y012501D02*
X007238Y012608D01*
X007025Y012608D01*
X006918Y012501D01*
X006701Y012608D02*
X006594Y012608D01*
X006381Y012395D01*
X006381Y012608D02*
X006381Y012181D01*
X006245Y011608D02*
X006032Y011181D01*
X005818Y011608D01*
X005601Y011501D02*
X005601Y011181D01*
X005280Y011181D01*
X005174Y011288D01*
X005280Y011395D01*
X005601Y011395D01*
X005601Y011501D02*
X005494Y011608D01*
X005280Y011608D01*
X004851Y011822D02*
X004851Y011181D01*
X004744Y011181D02*
X004958Y011181D01*
X004527Y011288D02*
X004420Y011181D01*
X004100Y011181D01*
X004206Y011395D02*
X004100Y011501D01*
X004206Y011608D01*
X004527Y011608D01*
X004744Y011822D02*
X004851Y011822D01*
X004420Y011395D02*
X004206Y011395D01*
X004420Y011395D02*
X004527Y011288D01*
X003237Y011288D02*
X003131Y011181D01*
X002917Y011181D01*
X002810Y011288D01*
X002810Y011501D01*
X002917Y011608D01*
X003131Y011608D01*
X003237Y011501D01*
X003237Y011288D01*
X002594Y011181D02*
X002488Y011288D01*
X002488Y011715D01*
X002594Y011608D02*
X002381Y011608D01*
X002601Y010651D02*
X004101Y010651D01*
X004351Y010401D01*
X004351Y009901D01*
X004101Y009651D01*
X002601Y009651D01*
X002351Y009401D01*
X002351Y008901D01*
X002601Y008651D01*
X004101Y008651D01*
X004351Y008401D01*
X004351Y007901D01*
X004101Y007651D01*
X002601Y007651D01*
X002351Y007401D01*
X002351Y006901D01*
X002601Y006651D01*
X002351Y006401D01*
X002351Y005901D01*
X002601Y005651D01*
X004101Y005651D01*
X004351Y005901D01*
X004351Y006401D01*
X004101Y006651D01*
X002601Y006651D01*
X004101Y006651D02*
X004351Y006901D01*
X004351Y007401D01*
X004101Y007651D01*
X002601Y007651D02*
X002351Y007901D01*
X002351Y008401D01*
X002601Y008651D01*
X004101Y008651D02*
X004351Y008901D01*
X004351Y009401D01*
X004101Y009651D01*
X002601Y009651D02*
X002351Y009901D01*
X002351Y010401D01*
X002601Y010651D01*
X006463Y011288D02*
X006570Y011181D01*
X006783Y011181D01*
X006890Y011395D02*
X006463Y011395D01*
X006463Y011501D02*
X006463Y011288D01*
X006463Y011501D02*
X006570Y011608D01*
X006783Y011608D01*
X006890Y011501D01*
X006890Y011395D01*
X007951Y011151D02*
X010251Y011151D01*
X010251Y003151D01*
X009501Y003151D01*
X009499Y003190D01*
X009493Y003229D01*
X009484Y003267D01*
X009471Y003304D01*
X009454Y003340D01*
X009434Y003373D01*
X009410Y003405D01*
X009384Y003434D01*
X009355Y003460D01*
X009323Y003484D01*
X009290Y003504D01*
X009254Y003521D01*
X009217Y003534D01*
X009179Y003543D01*
X009140Y003549D01*
X009101Y003551D01*
X009062Y003549D01*
X009023Y003543D01*
X008985Y003534D01*
X008948Y003521D01*
X008912Y003504D01*
X008879Y003484D01*
X008847Y003460D01*
X008818Y003434D01*
X008792Y003405D01*
X008768Y003373D01*
X008748Y003340D01*
X008731Y003304D01*
X008718Y003267D01*
X008709Y003229D01*
X008703Y003190D01*
X008701Y003151D01*
X007951Y003151D01*
X007951Y011151D01*
X010355Y012181D02*
X010355Y012608D01*
X010676Y012608D01*
X010782Y012501D01*
X010782Y012181D01*
X009816Y013181D02*
X009495Y013181D01*
X009389Y013288D01*
X009389Y013608D01*
X009171Y013501D02*
X009171Y013395D01*
X008744Y013395D01*
X008744Y013501D02*
X008851Y013608D01*
X009064Y013608D01*
X009171Y013501D01*
X009064Y013181D02*
X008851Y013181D01*
X008744Y013288D01*
X008744Y013501D01*
X008527Y013608D02*
X008206Y013608D01*
X008100Y013501D01*
X008100Y013288D01*
X008206Y013181D01*
X008527Y013181D01*
X008527Y013822D01*
X007777Y013822D02*
X007777Y013928D01*
X007777Y013608D02*
X007777Y013181D01*
X007883Y013181D02*
X007670Y013181D01*
X007452Y013288D02*
X007346Y013181D01*
X007025Y013181D01*
X007025Y012968D02*
X007025Y013608D01*
X007346Y013608D01*
X007452Y013501D01*
X007452Y013288D01*
X007670Y013608D02*
X007777Y013608D01*
X006808Y013715D02*
X006701Y013822D01*
X006488Y013822D01*
X006381Y013715D01*
X006381Y013608D01*
X006488Y013501D01*
X006701Y013501D01*
X006808Y013395D01*
X006808Y013288D01*
X006701Y013181D01*
X006488Y013181D01*
X006381Y013288D01*
X008314Y012928D02*
X008314Y012822D01*
X011967Y013181D02*
X012287Y013181D01*
X012394Y013288D01*
X012287Y013395D01*
X012073Y013395D01*
X011967Y013501D01*
X012073Y013608D01*
X012394Y013608D01*
X012611Y013501D02*
X012718Y013608D01*
X012931Y013608D01*
X013038Y013501D01*
X013038Y013395D01*
X012611Y013395D01*
X012611Y013501D02*
X012611Y013288D01*
X012718Y013181D01*
X012931Y013181D01*
X013256Y013181D02*
X013256Y013288D01*
X013362Y013288D01*
X013362Y013181D01*
X013256Y013181D01*
X013256Y013501D02*
X013256Y013608D01*
X013362Y013608D01*
X013362Y013501D01*
X013256Y013501D01*
X014223Y013608D02*
X014223Y013181D01*
X014436Y013181D02*
X014436Y013501D01*
X014543Y013608D01*
X014650Y013501D01*
X014650Y013181D01*
X014867Y013288D02*
X014974Y013181D01*
X015187Y013181D01*
X015294Y013288D01*
X015294Y013501D01*
X015187Y013608D01*
X014974Y013608D01*
X014867Y013501D01*
X014867Y013288D01*
X014436Y013501D02*
X014329Y013608D01*
X014223Y013608D01*
X015512Y013501D02*
X015512Y013288D01*
X015618Y013181D01*
X015939Y013181D01*
X015939Y013822D01*
X015939Y013608D02*
X015618Y013608D01*
X015512Y013501D01*
X016156Y013608D02*
X016156Y013288D01*
X016263Y013181D01*
X016583Y013181D01*
X016583Y013608D01*
X016801Y013822D02*
X016907Y013822D01*
X016907Y013181D01*
X016801Y013181D02*
X017014Y013181D01*
X017230Y013288D02*
X017230Y013501D01*
X017337Y013608D01*
X017551Y013608D01*
X017657Y013501D01*
X017657Y013395D01*
X017230Y013395D01*
X017230Y013288D02*
X017337Y013181D01*
X017551Y013181D01*
X017875Y013181D02*
X018195Y013181D01*
X018302Y013288D01*
X018195Y013395D01*
X017982Y013395D01*
X017875Y013501D01*
X017982Y013608D01*
X018302Y013608D01*
X019164Y013608D02*
X019484Y013608D01*
X019591Y013501D01*
X019591Y013288D01*
X019484Y013181D01*
X019164Y013181D01*
X019164Y013822D01*
X019808Y013608D02*
X019808Y013288D01*
X019915Y013181D01*
X020235Y013181D01*
X020235Y013074D02*
X020129Y012968D01*
X020022Y012968D01*
X020235Y013074D02*
X020235Y013608D01*
X021097Y013822D02*
X021097Y013181D01*
X021524Y013181D02*
X021524Y013822D01*
X021849Y013822D02*
X021849Y013928D01*
X021849Y013608D02*
X021742Y013608D01*
X021849Y013608D02*
X021849Y013181D01*
X021742Y013181D02*
X021956Y013181D01*
X022172Y013288D02*
X022278Y013181D01*
X022599Y013181D01*
X022816Y013181D02*
X022816Y013822D01*
X022599Y013608D02*
X022278Y013608D01*
X022172Y013501D01*
X022172Y013288D01*
X022816Y013395D02*
X023136Y013608D01*
X022816Y013395D02*
X023136Y013181D01*
X023998Y013288D02*
X024105Y013181D01*
X024425Y013181D01*
X024425Y013501D01*
X024318Y013608D01*
X024105Y013608D01*
X024105Y013395D02*
X024425Y013395D01*
X024642Y013608D02*
X024963Y013608D01*
X025069Y013501D01*
X025069Y013181D01*
X025287Y013288D02*
X025287Y013501D01*
X025394Y013608D01*
X025714Y013608D01*
X025714Y013822D02*
X025714Y013181D01*
X025394Y013181D01*
X025287Y013288D01*
X024642Y013181D02*
X024642Y013608D01*
X024105Y013395D02*
X023998Y013288D01*
X021524Y013181D02*
X021097Y013822D01*
X026576Y013715D02*
X026576Y013288D01*
X026683Y013181D01*
X026896Y013181D01*
X027003Y013288D01*
X027003Y013501D01*
X026789Y013501D01*
X026576Y013715D02*
X026683Y013822D01*
X026896Y013822D01*
X027003Y013715D01*
X027327Y013608D02*
X027541Y013608D01*
X027647Y013501D01*
X027647Y013181D01*
X027327Y013181D01*
X027220Y013288D01*
X027327Y013395D01*
X027647Y013395D01*
X027865Y013608D02*
X028185Y013608D01*
X028292Y013501D01*
X028292Y013288D01*
X028185Y013181D01*
X027865Y013181D01*
X027865Y013822D01*
X028510Y013501D02*
X028616Y013608D01*
X028830Y013608D01*
X028937Y013501D01*
X028937Y013395D01*
X028510Y013395D01*
X028510Y013501D02*
X028510Y013288D01*
X028616Y013181D01*
X028830Y013181D01*
X028857Y011608D02*
X028857Y011181D01*
X028857Y011395D02*
X029071Y011608D01*
X029178Y011608D01*
X028640Y011501D02*
X028640Y011395D01*
X028213Y011395D01*
X028213Y011501D02*
X028213Y011288D01*
X028320Y011181D01*
X028533Y011181D01*
X028640Y011501D02*
X028533Y011608D01*
X028320Y011608D01*
X028213Y011501D01*
X014501Y002251D02*
X014251Y002501D01*
X014001Y002251D01*
X014251Y002001D01*
X015101Y000701D02*
X015153Y000703D01*
X015205Y000709D01*
X015256Y000718D01*
X015306Y000732D01*
X015356Y000749D01*
X015404Y000770D01*
X015450Y000794D01*
X015494Y000822D01*
X015536Y000852D01*
X015575Y000886D01*
X015612Y000923D01*
X015647Y000962D01*
X015678Y001004D01*
X015706Y001048D01*
X015101Y000701D02*
X015049Y000703D01*
X014997Y000709D01*
X014946Y000718D01*
X014896Y000732D01*
X014846Y000749D01*
X014798Y000770D01*
X014752Y000794D01*
X014708Y000822D01*
X014666Y000852D01*
X014627Y000886D01*
X014590Y000923D01*
X014555Y000962D01*
X014524Y001004D01*
X014496Y001048D01*
X014496Y001754D02*
X014524Y001798D01*
X014555Y001840D01*
X014590Y001879D01*
X014627Y001916D01*
X014666Y001950D01*
X014708Y001980D01*
X014752Y002008D01*
X014798Y002032D01*
X014846Y002053D01*
X014896Y002070D01*
X014946Y002084D01*
X014997Y002093D01*
X015049Y002099D01*
X015101Y002101D01*
X015153Y002099D01*
X015205Y002093D01*
X015256Y002084D01*
X015306Y002070D01*
X015356Y002053D01*
X015404Y002032D01*
X015450Y002008D01*
X015494Y001980D01*
X015536Y001950D01*
X015575Y001916D01*
X015612Y001879D01*
X015647Y001840D01*
X015678Y001798D01*
X015706Y001754D01*
X014051Y001401D02*
X014053Y001466D01*
X014059Y001530D01*
X014069Y001594D01*
X014083Y001657D01*
X014100Y001719D01*
X014122Y001780D01*
X014147Y001840D01*
X014176Y001898D01*
X014208Y001954D01*
X014244Y002008D01*
X014283Y002059D01*
X014325Y002108D01*
X014370Y002155D01*
X014418Y002198D01*
X014468Y002239D01*
X014521Y002276D01*
X014576Y002310D01*
X014633Y002341D01*
X014692Y002368D01*
X014752Y002391D01*
X014814Y002411D01*
X014876Y002427D01*
X014940Y002439D01*
X015004Y002447D01*
X015069Y002451D01*
X015133Y002451D01*
X015198Y002447D01*
X015262Y002439D01*
X015326Y002427D01*
X015388Y002411D01*
X015450Y002391D01*
X015510Y002368D01*
X015569Y002341D01*
X015626Y002310D01*
X015681Y002276D01*
X015734Y002239D01*
X015784Y002198D01*
X015832Y002155D01*
X015877Y002108D01*
X015919Y002059D01*
X015958Y002008D01*
X015994Y001954D01*
X016026Y001898D01*
X016055Y001840D01*
X016080Y001780D01*
X016102Y001719D01*
X016119Y001657D01*
X016133Y001594D01*
X016143Y001530D01*
X016149Y001466D01*
X016151Y001401D01*
X016149Y001336D01*
X016143Y001272D01*
X016133Y001208D01*
X016119Y001145D01*
X016102Y001083D01*
X016080Y001022D01*
X016055Y000962D01*
X016026Y000904D01*
X015994Y000848D01*
X015958Y000794D01*
X015919Y000743D01*
X015877Y000694D01*
X015832Y000647D01*
X015784Y000604D01*
X015734Y000563D01*
X015681Y000526D01*
X015626Y000492D01*
X015569Y000461D01*
X015510Y000434D01*
X015450Y000411D01*
X015388Y000391D01*
X015326Y000375D01*
X015262Y000363D01*
X015198Y000355D01*
X015133Y000351D01*
X015069Y000351D01*
X015004Y000355D01*
X014940Y000363D01*
X014876Y000375D01*
X014814Y000391D01*
X014752Y000411D01*
X014692Y000434D01*
X014633Y000461D01*
X014576Y000492D01*
X014521Y000526D01*
X014468Y000563D01*
X014418Y000604D01*
X014370Y000647D01*
X014325Y000694D01*
X014283Y000743D01*
X014244Y000794D01*
X014208Y000848D01*
X014176Y000904D01*
X014147Y000962D01*
X014122Y001022D01*
X014100Y001083D01*
X014083Y001145D01*
X014069Y001208D01*
X014059Y001272D01*
X014053Y001336D01*
X014051Y001401D01*
D12*
X005848Y005998D02*
X005772Y005921D01*
X005618Y005921D01*
X005541Y005998D01*
X005541Y006305D01*
X005618Y006382D01*
X005772Y006382D01*
X005848Y006305D01*
X005388Y006305D02*
X005311Y006382D01*
X005158Y006382D01*
X005081Y006305D01*
X005081Y005998D01*
X005158Y005921D01*
X005311Y005921D01*
X005388Y005998D01*
X004928Y006075D02*
X004928Y006382D01*
X004621Y006382D02*
X004621Y006075D01*
X004774Y005921D01*
X004928Y006075D01*
X004851Y006921D02*
X004697Y006921D01*
X004621Y006998D01*
X004697Y007151D02*
X004851Y007151D01*
X004928Y007075D01*
X004928Y006998D01*
X004851Y006921D01*
X005081Y006921D02*
X005311Y006921D01*
X005388Y006998D01*
X005388Y007305D01*
X005311Y007382D01*
X005081Y007382D01*
X005081Y006921D01*
X004697Y007151D02*
X004621Y007228D01*
X004621Y007305D01*
X004697Y007382D01*
X004851Y007382D01*
X004928Y007305D01*
X005541Y007382D02*
X005695Y007382D01*
X005618Y007382D02*
X005618Y006921D01*
X005541Y006921D02*
X005695Y006921D01*
X005311Y007921D02*
X005388Y007998D01*
X005311Y007921D02*
X005158Y007921D01*
X005081Y007998D01*
X005081Y008305D01*
X005158Y008382D01*
X005311Y008382D01*
X005388Y008305D01*
X004928Y008305D02*
X004851Y008382D01*
X004697Y008382D01*
X004621Y008305D01*
X004621Y008228D01*
X004697Y008151D01*
X004851Y008151D01*
X004928Y008075D01*
X004928Y007998D01*
X004851Y007921D01*
X004697Y007921D01*
X004621Y007998D01*
X004697Y008921D02*
X004621Y008998D01*
X004697Y008921D02*
X004851Y008921D01*
X004928Y008998D01*
X004928Y009075D01*
X004851Y009151D01*
X004697Y009151D01*
X004621Y009228D01*
X004621Y009305D01*
X004697Y009382D01*
X004851Y009382D01*
X004928Y009305D01*
X005081Y009382D02*
X005081Y008921D01*
X005388Y008921D01*
X005311Y009921D02*
X005388Y009998D01*
X005388Y010305D01*
X005311Y010382D01*
X005158Y010382D01*
X005081Y010305D01*
X005081Y009998D01*
X005158Y009921D01*
X005311Y009921D01*
X004928Y009921D02*
X004621Y009921D01*
X004621Y010382D01*
X002098Y009305D02*
X002022Y009382D01*
X001868Y009382D01*
X001791Y009305D01*
X001791Y008998D01*
X001868Y008921D01*
X002022Y008921D01*
X002098Y008998D01*
X001638Y009382D02*
X001331Y008921D01*
X001178Y008921D02*
X001178Y009382D01*
X000871Y009382D02*
X001178Y008921D01*
X000871Y008921D02*
X000871Y009382D01*
X000851Y009921D02*
X000697Y009921D01*
X000621Y009998D01*
X000774Y010151D02*
X000851Y010151D01*
X000928Y010075D01*
X000928Y009998D01*
X000851Y009921D01*
X001081Y009998D02*
X001081Y010075D01*
X001158Y010151D01*
X001311Y010151D01*
X001388Y010075D01*
X001388Y009998D01*
X001311Y009921D01*
X001158Y009921D01*
X001081Y009998D01*
X001158Y010151D02*
X001081Y010228D01*
X001081Y010305D01*
X001158Y010382D01*
X001311Y010382D01*
X001388Y010305D01*
X001388Y010228D01*
X001311Y010151D01*
X001541Y010075D02*
X001848Y010382D01*
X001541Y010382D02*
X001541Y009921D01*
X001618Y010151D02*
X001848Y009921D01*
X000928Y010228D02*
X000928Y010305D01*
X000851Y010382D01*
X000697Y010382D01*
X000621Y010305D01*
X000851Y010151D02*
X000928Y010228D01*
X001121Y008382D02*
X001121Y007921D01*
X001428Y007921D01*
X001581Y007921D02*
X001581Y008382D01*
X001811Y008382D01*
X001888Y008305D01*
X001888Y008151D01*
X001811Y008075D01*
X001581Y008075D01*
X001735Y008075D02*
X001888Y007921D01*
X001772Y007382D02*
X001618Y007382D01*
X001541Y007305D01*
X001541Y006998D01*
X001618Y006921D01*
X001772Y006921D01*
X001848Y006998D01*
X001848Y007305D02*
X001772Y007382D01*
X001388Y007305D02*
X001311Y007382D01*
X001158Y007382D01*
X001081Y007305D01*
X001081Y007228D01*
X001158Y007151D01*
X001311Y007151D01*
X001388Y007075D01*
X001388Y006998D01*
X001311Y006921D01*
X001158Y006921D01*
X001081Y006998D01*
X000928Y006921D02*
X000621Y006921D01*
X000621Y007382D01*
X000697Y006382D02*
X000621Y006305D01*
X000621Y005998D01*
X000697Y005921D01*
X000851Y005921D01*
X000928Y005998D01*
X000928Y006151D01*
X000774Y006151D01*
X000928Y006305D02*
X000851Y006382D01*
X000697Y006382D01*
X001081Y006382D02*
X001388Y005921D01*
X001388Y006382D01*
X001541Y006382D02*
X001772Y006382D01*
X001848Y006305D01*
X001848Y005998D01*
X001772Y005921D01*
X001541Y005921D01*
X001541Y006382D01*
X001081Y006382D02*
X001081Y005921D01*
X024121Y006075D02*
X024274Y005921D01*
X024428Y006075D01*
X024428Y006382D01*
X024581Y006305D02*
X024581Y005998D01*
X024658Y005921D01*
X024811Y005921D01*
X024888Y005998D01*
X025041Y005998D02*
X025118Y005921D01*
X025272Y005921D01*
X025348Y005998D01*
X025041Y005998D02*
X025041Y006305D01*
X025118Y006382D01*
X025272Y006382D01*
X025348Y006305D01*
X024888Y006305D02*
X024811Y006382D01*
X024658Y006382D01*
X024581Y006305D01*
X024121Y006382D02*
X024121Y006075D01*
X024197Y006921D02*
X024121Y006998D01*
X024197Y006921D02*
X024351Y006921D01*
X024428Y006998D01*
X024428Y007075D01*
X024351Y007151D01*
X024197Y007151D01*
X024121Y007228D01*
X024121Y007305D01*
X024197Y007382D01*
X024351Y007382D01*
X024428Y007305D01*
X024581Y007382D02*
X024811Y007382D01*
X024888Y007305D01*
X024888Y006998D01*
X024811Y006921D01*
X024581Y006921D01*
X024581Y007382D01*
X025041Y007305D02*
X025041Y006998D01*
X025118Y006921D01*
X025272Y006921D01*
X025348Y006998D01*
X025348Y007305D01*
X025272Y007382D01*
X025118Y007382D01*
X025041Y007305D01*
X025158Y007921D02*
X025311Y007921D01*
X025388Y007998D01*
X025158Y007921D02*
X025081Y007998D01*
X025081Y008305D01*
X025158Y008382D01*
X025311Y008382D01*
X025388Y008305D01*
X024928Y008305D02*
X024851Y008382D01*
X024697Y008382D01*
X024621Y008305D01*
X024621Y008228D01*
X024697Y008151D01*
X024851Y008151D01*
X024928Y008075D01*
X024928Y007998D01*
X024851Y007921D01*
X024697Y007921D01*
X024621Y007998D01*
X024697Y008921D02*
X024621Y008998D01*
X024697Y008921D02*
X024851Y008921D01*
X024928Y008998D01*
X024928Y009075D01*
X024851Y009151D01*
X024697Y009151D01*
X024621Y009228D01*
X024621Y009305D01*
X024697Y009382D01*
X024851Y009382D01*
X024928Y009305D01*
X025081Y009382D02*
X025081Y008921D01*
X025388Y008921D01*
X025235Y009921D02*
X025081Y009921D01*
X025158Y009921D02*
X025158Y010382D01*
X025081Y010382D02*
X025235Y010382D01*
X024621Y010382D02*
X024621Y009921D01*
X024928Y009921D01*
X028121Y009998D02*
X028197Y009921D01*
X028351Y009921D01*
X028428Y009998D01*
X028428Y010075D01*
X028351Y010151D01*
X028274Y010151D01*
X028351Y010151D02*
X028428Y010228D01*
X028428Y010305D01*
X028351Y010382D01*
X028197Y010382D01*
X028121Y010305D01*
X028581Y010305D02*
X028581Y010228D01*
X028658Y010151D01*
X028811Y010151D01*
X028888Y010075D01*
X028888Y009998D01*
X028811Y009921D01*
X028658Y009921D01*
X028581Y009998D01*
X028581Y010075D01*
X028658Y010151D01*
X028811Y010151D02*
X028888Y010228D01*
X028888Y010305D01*
X028811Y010382D01*
X028658Y010382D01*
X028581Y010305D01*
X029041Y010382D02*
X029041Y009921D01*
X029041Y010075D02*
X029348Y010382D01*
X029118Y010151D02*
X029348Y009921D01*
X029272Y009382D02*
X029118Y009382D01*
X029041Y009305D01*
X029041Y008998D01*
X029118Y008921D01*
X029272Y008921D01*
X029348Y008998D01*
X029348Y009305D02*
X029272Y009382D01*
X028888Y009382D02*
X028581Y008921D01*
X028428Y008921D02*
X028428Y009382D01*
X028121Y009382D02*
X028428Y008921D01*
X028121Y008921D02*
X028121Y009382D01*
X028121Y008382D02*
X028121Y007921D01*
X028428Y007921D01*
X028581Y007921D02*
X028581Y008382D01*
X028811Y008382D01*
X028888Y008305D01*
X028888Y008151D01*
X028811Y008075D01*
X028581Y008075D01*
X028735Y008075D02*
X028888Y007921D01*
X028811Y007382D02*
X028658Y007382D01*
X028581Y007305D01*
X028581Y007228D01*
X028658Y007151D01*
X028811Y007151D01*
X028888Y007075D01*
X028888Y006998D01*
X028811Y006921D01*
X028658Y006921D01*
X028581Y006998D01*
X028428Y006921D02*
X028121Y006921D01*
X028121Y007382D01*
X028811Y007382D02*
X028888Y007305D01*
X029041Y007305D02*
X029041Y006998D01*
X029118Y006921D01*
X029272Y006921D01*
X029348Y006998D01*
X029348Y007305D02*
X029272Y007382D01*
X029118Y007382D01*
X029041Y007305D01*
X029041Y006382D02*
X029272Y006382D01*
X029348Y006305D01*
X029348Y005998D01*
X029272Y005921D01*
X029041Y005921D01*
X029041Y006382D01*
X028888Y006382D02*
X028888Y005921D01*
X028581Y006382D01*
X028581Y005921D01*
X028428Y005998D02*
X028428Y006151D01*
X028274Y006151D01*
X028121Y005998D02*
X028197Y005921D01*
X028351Y005921D01*
X028428Y005998D01*
X028121Y005998D02*
X028121Y006305D01*
X028197Y006382D01*
X028351Y006382D01*
X028428Y006305D01*
D13*
X027351Y012151D02*
X027601Y012401D01*
X027351Y012651D01*
X027601Y012401D01*
X026351Y012401D01*
X003601Y012401D02*
X002351Y012401D01*
X002601Y012651D01*
X002351Y012401D02*
X002601Y012151D01*
X002351Y012401D01*
D14*
X013601Y011911D02*
X013601Y011651D01*
X013901Y011601D01*
X014001Y011331D02*
X013841Y011091D01*
X014021Y010901D01*
X014261Y011071D01*
X014361Y011011D01*
X014561Y011461D01*
X014881Y011461D02*
X015071Y011011D01*
X015171Y011071D01*
X015411Y010901D01*
X015601Y011091D01*
X015431Y011331D01*
X015531Y011601D02*
X015831Y011651D01*
X015831Y011911D01*
X015531Y011971D01*
X015421Y012221D02*
X015601Y012481D01*
X015411Y012661D01*
X015151Y012481D01*
X014901Y012581D02*
X014851Y012901D01*
X014581Y012901D01*
X014531Y012581D01*
X014281Y012481D02*
X014021Y012661D01*
X013831Y012481D01*
X014011Y012221D01*
X013901Y011971D02*
X013601Y011911D01*
X014284Y012484D02*
X014329Y012509D01*
X014376Y012532D01*
X014424Y012551D01*
X014473Y012568D01*
X014523Y012581D01*
X014561Y011471D02*
X014528Y011489D01*
X014498Y011510D01*
X014469Y011534D01*
X014443Y011561D01*
X014421Y011590D01*
X014401Y011622D01*
X014384Y011655D01*
X014371Y011690D01*
X014362Y011726D01*
X014356Y011763D01*
X014354Y011800D01*
X014356Y011837D01*
X014361Y011874D01*
X014371Y011910D01*
X014383Y011945D01*
X014400Y011979D01*
X014419Y012010D01*
X014442Y012040D01*
X014468Y012067D01*
X014496Y012091D01*
X014527Y012112D01*
X014559Y012130D01*
X014593Y012145D01*
X014629Y012156D01*
X014665Y012164D01*
X014702Y012168D01*
X014740Y012168D01*
X014777Y012164D01*
X014813Y012156D01*
X014849Y012145D01*
X014883Y012130D01*
X014915Y012112D01*
X014946Y012091D01*
X014974Y012067D01*
X015000Y012040D01*
X015023Y012010D01*
X015042Y011979D01*
X015059Y011945D01*
X015071Y011910D01*
X015081Y011874D01*
X015086Y011837D01*
X015088Y011800D01*
X015086Y011763D01*
X015080Y011726D01*
X015071Y011690D01*
X015058Y011655D01*
X015041Y011622D01*
X015021Y011590D01*
X014999Y011561D01*
X014973Y011534D01*
X014944Y011510D01*
X014914Y011489D01*
X014881Y011471D01*
X015431Y011331D02*
X015454Y011372D01*
X015475Y011415D01*
X015493Y011460D01*
X015508Y011505D01*
X015521Y011551D01*
X015531Y011598D01*
X015530Y011972D02*
X015515Y012024D01*
X015496Y012075D01*
X015474Y012125D01*
X015449Y012173D01*
X015420Y012220D01*
X015155Y012483D02*
X015108Y012510D01*
X015059Y012533D01*
X015009Y012553D01*
X014958Y012570D01*
X014906Y012584D01*
X014012Y012216D02*
X013985Y012170D01*
X013961Y012122D01*
X013940Y012073D01*
X013922Y012022D01*
X013908Y011971D01*
X013902Y011600D02*
X013915Y011544D01*
X013932Y011489D01*
X013953Y011436D01*
X013977Y011384D01*
X014005Y011334D01*
X012851Y002651D02*
X009851Y002651D01*
X009851Y001901D01*
X012851Y001901D01*
X012851Y000151D01*
X009851Y000151D01*
X009851Y001901D01*
X012851Y001901D02*
X012851Y002651D01*
X014151Y001401D02*
X014153Y001462D01*
X014159Y001524D01*
X014169Y001584D01*
X014183Y001644D01*
X014200Y001703D01*
X014222Y001761D01*
X014247Y001817D01*
X014276Y001872D01*
X014308Y001924D01*
X014343Y001974D01*
X014382Y002022D01*
X014424Y002067D01*
X014468Y002110D01*
X014516Y002149D01*
X014565Y002186D01*
X014617Y002219D01*
X014671Y002248D01*
X014727Y002274D01*
X014784Y002297D01*
X014843Y002315D01*
X014902Y002330D01*
X014963Y002341D01*
X015024Y002348D01*
X015086Y002351D01*
X015147Y002350D01*
X015208Y002345D01*
X015269Y002336D01*
X015329Y002323D01*
X015389Y002306D01*
X015447Y002286D01*
X015503Y002262D01*
X015558Y002234D01*
X015611Y002202D01*
X015662Y002168D01*
X015710Y002130D01*
X015756Y002089D01*
X015799Y002045D01*
X015840Y001998D01*
X015877Y001949D01*
X015911Y001898D01*
X015941Y001845D01*
X015968Y001789D01*
X015991Y001732D01*
X016011Y001674D01*
X016027Y001615D01*
X016039Y001554D01*
X016047Y001493D01*
X016051Y001432D01*
X016051Y001370D01*
X016047Y001309D01*
X016039Y001248D01*
X016027Y001187D01*
X016011Y001128D01*
X015991Y001070D01*
X015968Y001013D01*
X015941Y000957D01*
X015911Y000904D01*
X015877Y000853D01*
X015840Y000804D01*
X015799Y000757D01*
X015756Y000713D01*
X015710Y000672D01*
X015662Y000634D01*
X015611Y000600D01*
X015558Y000568D01*
X015503Y000540D01*
X015447Y000516D01*
X015389Y000496D01*
X015329Y000479D01*
X015269Y000466D01*
X015208Y000457D01*
X015147Y000452D01*
X015086Y000451D01*
X015024Y000454D01*
X014963Y000461D01*
X014902Y000472D01*
X014843Y000487D01*
X014784Y000505D01*
X014727Y000528D01*
X014671Y000554D01*
X014617Y000583D01*
X014565Y000616D01*
X014516Y000653D01*
X014468Y000692D01*
X014424Y000735D01*
X014382Y000780D01*
X014343Y000828D01*
X014308Y000878D01*
X014276Y000930D01*
X014247Y000985D01*
X014222Y001041D01*
X014200Y001099D01*
X014183Y001158D01*
X014169Y001218D01*
X014159Y001278D01*
X014153Y001340D01*
X014151Y001401D01*
X017351Y001901D02*
X017351Y000151D01*
X020351Y000151D01*
X020351Y001901D01*
X017351Y001901D01*
X017351Y002651D01*
X020351Y002651D01*
X020351Y001901D01*
X024851Y001901D02*
X024851Y000151D01*
X027851Y000151D01*
X027851Y001901D01*
X024851Y001901D01*
X024851Y002651D01*
X027851Y002651D01*
X027851Y001901D01*
X005351Y001901D02*
X005351Y000151D01*
X002351Y000151D01*
X002351Y001901D01*
X005351Y001901D01*
X005351Y002651D01*
X002351Y002651D01*
X002351Y001901D01*
D15*
X010975Y007476D02*
X010975Y007626D01*
X010975Y007551D02*
X011426Y007551D01*
X011426Y007476D02*
X011426Y007626D01*
X011351Y007783D02*
X011050Y007783D01*
X010975Y007858D01*
X010975Y008008D01*
X011050Y008083D01*
X011050Y008243D02*
X010975Y008318D01*
X010975Y008469D01*
X011050Y008544D01*
X011126Y008544D01*
X011201Y008469D01*
X011276Y008544D01*
X011351Y008544D01*
X011426Y008469D01*
X011426Y008318D01*
X011351Y008243D01*
X011351Y008083D02*
X011426Y008008D01*
X011426Y007858D01*
X011351Y007783D01*
X011201Y008394D02*
X011201Y008469D01*
X015001Y004976D02*
X015001Y003326D01*
X015266Y003541D02*
X015266Y004761D01*
X015935Y004761D01*
X015935Y003541D01*
X015266Y003541D01*
X014401Y003598D02*
X014401Y003704D01*
X014798Y003201D02*
X014852Y003228D01*
X014903Y003258D01*
X014953Y003291D01*
X015001Y003326D01*
X013904Y003201D02*
X013847Y003230D01*
X013791Y003263D01*
X013738Y003298D01*
X013687Y003338D01*
X013639Y003380D01*
X013593Y003425D01*
X013550Y003472D01*
X013510Y003522D01*
X013473Y003575D01*
X013440Y003630D01*
X013409Y003686D01*
X013383Y003745D01*
X013360Y003805D01*
X013340Y003866D01*
X013325Y003928D01*
X013313Y003991D01*
X013305Y004055D01*
X013301Y004119D01*
X013301Y004183D01*
X013305Y004247D01*
X013313Y004311D01*
X013325Y004374D01*
X013340Y004436D01*
X013360Y004497D01*
X013383Y004557D01*
X013409Y004616D01*
X013440Y004672D01*
X013473Y004727D01*
X013510Y004780D01*
X013550Y004830D01*
X013593Y004877D01*
X013639Y004922D01*
X013687Y004964D01*
X013738Y005004D01*
X013791Y005039D01*
X013847Y005072D01*
X013904Y005101D01*
X014401Y004704D02*
X014401Y004598D01*
X014789Y005105D02*
X014845Y005078D01*
X014899Y005047D01*
X014951Y005013D01*
X015001Y004976D01*
D16*
X025601Y009901D02*
X025601Y010401D01*
X002367Y004151D02*
X002369Y004213D01*
X002375Y004276D01*
X002385Y004337D01*
X002399Y004398D01*
X002416Y004458D01*
X002437Y004517D01*
X002463Y004574D01*
X002491Y004629D01*
X002523Y004683D01*
X002559Y004734D01*
X002597Y004784D01*
X002639Y004830D01*
X002683Y004874D01*
X002731Y004915D01*
X002780Y004953D01*
X002832Y004987D01*
X002886Y005018D01*
X002942Y005046D01*
X003000Y005070D01*
X003059Y005091D01*
X003119Y005107D01*
X003180Y005120D01*
X003242Y005129D01*
X003304Y005134D01*
X003367Y005135D01*
X003429Y005132D01*
X003491Y005125D01*
X003553Y005114D01*
X003613Y005099D01*
X003673Y005081D01*
X003731Y005059D01*
X003788Y005033D01*
X003843Y005003D01*
X003896Y004970D01*
X003947Y004934D01*
X003995Y004895D01*
X004041Y004852D01*
X004084Y004807D01*
X004124Y004759D01*
X004161Y004709D01*
X004195Y004656D01*
X004226Y004602D01*
X004252Y004546D01*
X004276Y004488D01*
X004295Y004428D01*
X004311Y004368D01*
X004323Y004306D01*
X004331Y004245D01*
X004335Y004182D01*
X004335Y004120D01*
X004331Y004057D01*
X004323Y003996D01*
X004311Y003934D01*
X004295Y003874D01*
X004276Y003814D01*
X004252Y003756D01*
X004226Y003700D01*
X004195Y003646D01*
X004161Y003593D01*
X004124Y003543D01*
X004084Y003495D01*
X004041Y003450D01*
X003995Y003407D01*
X003947Y003368D01*
X003896Y003332D01*
X003843Y003299D01*
X003788Y003269D01*
X003731Y003243D01*
X003673Y003221D01*
X003613Y003203D01*
X003553Y003188D01*
X003491Y003177D01*
X003429Y003170D01*
X003367Y003167D01*
X003304Y003168D01*
X003242Y003173D01*
X003180Y003182D01*
X003119Y003195D01*
X003059Y003211D01*
X003000Y003232D01*
X002942Y003256D01*
X002886Y003284D01*
X002832Y003315D01*
X002780Y003349D01*
X002731Y003387D01*
X002683Y003428D01*
X002639Y003472D01*
X002597Y003518D01*
X002559Y003568D01*
X002523Y003619D01*
X002491Y003673D01*
X002463Y003728D01*
X002437Y003785D01*
X002416Y003844D01*
X002399Y003904D01*
X002385Y003965D01*
X002375Y004026D01*
X002369Y004089D01*
X002367Y004151D01*
X002597Y004513D02*
X003097Y004513D01*
X002101Y009901D02*
X002101Y010401D01*
D17*
X002851Y008151D03*
X026351Y008151D03*
D18*
X003253Y004881D02*
X003228Y004906D01*
X003178Y004906D01*
X003153Y004881D01*
X003106Y004881D02*
X003081Y004906D01*
X003031Y004906D01*
X003006Y004881D01*
X003006Y004781D01*
X003031Y004756D01*
X003081Y004756D01*
X003106Y004781D01*
X003153Y004756D02*
X003253Y004856D01*
X003253Y004881D01*
X003253Y004756D02*
X003153Y004756D01*
M02*
